<svg id="hat" xmlns="http://www.w3.org/2000/svg" viewBox="0 0 360 360"><defs><style>.hat-1{fill:#ff4040;}.hat-2{fill:#fff;}.hat-3{fill:none;stroke:#000;stroke-linecap:round;stroke-linejoin:round;stroke-width:1.21px;}</style></defs><path class="hat-1" d="M255,93.6l-2-3.71,2.63-1.35c.16,2.34.17,4.51.11,6.47Z"/><path class="hat-1" d="M255.73,95h0c0,1-.09,2-.17,2.94h0l-1.32.66-1.94-3.54L255,93.6Z"/><path class="hat-1" d="M255.62,88.54,253,89.89l-2.21-4.12,3-1.47c1.1,2,1.75,3.15,1.75,3.19h0C255.58,87.84,255.6,88.19,255.62,88.54Z"/><path class="hat-1" d="M254.24,98.63l1.32-.66c-.1,1.33-.23,2.5-.36,3.5L252.13,103c-.34-.7-.8-1.62-1.32-2.64Z"/><path class="hat-1" d="M252.13,103l3.07-1.52a39.12,39.12,0,0,1-.69,3.93l-2.15-1.17s-.62-1.76-1.55-3.88C251.33,101.37,251.79,102.29,252.13,103Z"/><path class="hat-1" d="M253.66,79.14l.63-.34c.35,1.65.63,3.27.85,4.83l-1.37.67c-.62-1.11-1.39-2.47-2.25-4Z"/><polygon class="hat-1" points="252.99 89.89 254.97 93.6 252.3 95.09 250.23 91.31 252.99 89.89"/><path class="hat-1" d="M252.3,95.09l1.94,3.54-3.43,1.72-.06-.13A37.17,37.17,0,0,0,248.64,96l-1.58-3.1,3.17-1.63Z"/><path class="hat-1" d="M254.29,78.8l-.63.34c-.54-1-1.42-2.5-2.49-4.42l1.77-.82.08,0Q253.77,76.38,254.29,78.8Z"/><path class="hat-1" d="M253.77,84.3l-3,1.47-2.13-4,2.87-1.52C252.38,81.83,253.15,83.19,253.77,84.3Z"/><path class="hat-1" d="M253,73.88l-.08,0-1.77.82-2.51-4.52,2.55-1.2.08,0C252,70.62,252.53,72.26,253,73.88Z"/><polygon class="hat-1" points="252.99 89.89 250.23 91.31 247.96 87.15 250.78 85.77 252.99 89.89"/><path class="hat-1" d="M253.66,79.14l-2.14,1.14L249,75.73l2.21-1C252.24,76.64,253.12,78.19,253.66,79.14Z"/><path class="hat-1" d="M251.29,69l-.08,0-2.55,1.2-2.53-4.55,2.79-1.33.22-.11C250,65.8,250.66,67.39,251.29,69Z"/><path class="hat-1" d="M251.17,74.72l-2.21,1c-.8-1.43-1.65-2.94-2.53-4.49l2.23-1Z"/><path class="hat-1" d="M250.78,85.77,248,87.15l-2.12-3.87,2.81-1.48Z"/><path class="hat-1" d="M248,87.15l2.27,4.16-3.17,1.63-1.72-3.38h0a4.22,4.22,0,0,0,.09-1.24h.19Z"/><path class="hat-1" d="M251.52,80.28l-2.87,1.52-2.54-4.75L249,75.73Z"/><path class="hat-1" d="M249.14,64.21l-.22.11-2.79,1.33c-.71-1.29-1.42-2.59-2.13-3.87l2.84-1.26.18-.11C247.79,61.67,248.49,62.94,249.14,64.21Z"/><path class="hat-1" d="M249,75.73l-2.85,1.32-2.42-4.52,2.74-1.29C247.31,72.79,248.16,74.3,249,75.73Z"/><path class="hat-1" d="M248.66,70.2l-2.23,1c-.83-1.48-1.68-3-2.53-4.52l2.23-1.07Z"/><path class="hat-1" d="M246.11,77.05l2.54,4.75-2.81,1.48-2.67-4.88Z"/><path class="hat-1" d="M243.17,78.4l2.67,4.88L248,87.15l-2.34,1.15h-.19c-.11-2.56-1.85-5.94-2.81-10.91Z"/><path class="hat-1" d="M239.51,53.62l-2.34-4.25.62-.26L238,49A59.68,59.68,0,0,1,247,60.41l-.18.11L244,61.78,241.92,58C241.06,56.44,240.23,55,239.51,53.62Z"/><path class="hat-1" d="M246.43,71.24l-2.74,1.29L241.26,68l2.64-1.27C244.75,68.25,245.6,69.76,246.43,71.24Z"/><path class="hat-1" d="M246.13,65.65l-2.23,1.07-2.21-3.91,2.31-1C244.71,63.06,245.42,64.36,246.13,65.65Z"/><path class="hat-1" d="M241.26,68l2.43,4.54,2.42,4.52-2.94,1.35-.55-1c-.12-.58-.22-1.19-.31-1.82a70.44,70.44,0,0,0-3.48-11.49l.27-.13Z"/><path class="hat-2" d="M231.08,47.46c.6,1.13,1.24,2.36,1.91,3.67s1.46,2.95,2.2,4.53,1.38,3,2,4.53l.54,1.28c.36.87.71,1.74,1.06,2.62a70.44,70.44,0,0,1,3.48,11.49c.09.63.19,1.24.31,1.82,1,5,2.7,8.35,2.81,10.91a4.22,4.22,0,0,1-.09,1.24h0a3.63,3.63,0,0,1-.73,1.52l-.9.07a7.15,7.15,0,0,0-1.11-2.27c-3.59-5.12-24.83-30.26-56.55-30.26h-6.46c-31.72,0-53,25.14-56.55,30.26a7.31,7.31,0,0,0-1.1,2.27h-1l.08-.07a3.63,3.63,0,0,1-.73-1.52h0a4.2,4.2,0,0,1-.09-1.24c.11-2.55,1.83-5.92,2.8-10.89.12-.59.22-1.2.31-1.84a71.51,71.51,0,0,1,3.49-11.49c.35-.88.7-1.76,1.06-2.63l.54-1.27c.66-1.55,1.35-3.07,2-4.53s1.49-3.1,2.21-4.53,1.3-2.53,1.91-3.66c2.25-4.22,4-7,4.1-7.27h0a73.8,73.8,0,0,1,34.95-11.94c1.61-.13,3.26-.19,5-.19h8.47c1.69,0,3.34.06,4.95.19a73.8,73.8,0,0,1,35,11.94,0,0,0,0,1,0,0C227.11,40.43,228.82,43.25,231.08,47.46Z"/><path class="hat-1" d="M244,61.78l-2.31,1-2.09-3.72L241.92,58Z"/><path class="hat-1" d="M243.9,66.72,241.26,68l-2.16-4,2.59-1.15Z"/><path class="hat-1" d="M243.71,91.15c.95,3.58-2.69,5.33-2.69,5.33a9.8,9.8,0,0,1-3.15-2.33C235.71,92.1,214,65.49,186.63,65.49H179c-27.41,0-49.09,26.61-51.24,28.66s-3.16,2.33-3.16,2.33-3.63-1.75-2.68-5.33a7.31,7.31,0,0,1,1.1-2.27c3.59-5.12,24.83-30.26,56.55-30.26h6.46c31.72,0,53,25.14,56.55,30.26A7.15,7.15,0,0,1,243.71,91.15Z"/><path class="hat-1" d="M241.92,58l-2.32,1.07-2.45-4.35,2.36-1.12C240.23,55,241.06,56.44,241.92,58Z"/><path class="hat-1" d="M241.69,62.81,239.1,64l-1.33-2.49-.54-1.28,2.37-1.1Z"/><path class="hat-1" d="M239.6,59.09l-2.37,1.1c-.66-1.55-1.35-3.07-2-4.53l.09,0,1.87-.88Z"/><path class="hat-1" d="M239.51,53.62l-2.36,1.12-2.44-4.34,2.46-1Z"/><path class="hat-1" d="M237.17,49.37l-2.46,1-2-3.57c-1.34-2.41-2.16-3.89-2.16-3.93l.11-.15A66.81,66.81,0,0,1,238,49l-.16.15Z"/><path class="hat-1" d="M237.15,54.74l-1.87.88-.09,0c-.74-1.58-1.49-3.1-2.2-4.53l.07,0,1.65-.69Z"/><path class="hat-1" d="M234.71,50.4l-1.65.69-.07,0c-.67-1.31-1.31-2.54-1.91-3.67l1.63-.63Z"/><path class="hat-1" d="M232.71,46.83l-1.63.63c-2.26-4.21-4-7-4.11-7.26,1.29.83,2.51,1.68,3.69,2.55l-.11.15S231.37,44.42,232.71,46.83Z"/><path class="hat-1" d="M192,28.21v0c-1.61-.13-3.26-.19-4.95-.19h-8.47c-1.69,0-3.34.06-5,.19v0s1.5-3.51,4.3-3.88h9.76C190.5,24.7,192,28.21,192,28.21Z"/><path class="hat-1" d="M135,42.75q1.75-1.3,3.69-2.55c-.14.23-1.85,3-4.1,7.27l-1.64-.64c1.34-2.41,2.16-3.89,2.16-3.93Z"/><path class="hat-1" d="M132.94,46.83l-2,3.57-2.46-1-.63-.26L127.7,49A66.81,66.81,0,0,1,135,42.75l.11.15S134.28,44.42,132.94,46.83Z"/><path class="hat-1" d="M132.94,46.83l1.64.64c-.61,1.13-1.25,2.36-1.91,3.66l-.08,0-1.65-.69Z"/><path class="hat-1" d="M132.59,51.09l.08,0c-.72,1.43-1.47,2.95-2.21,4.53l-.1,0-1.86-.88,2.44-4.34Z"/><path class="hat-1" d="M128.48,49.37l2.46,1-2.44,4.34-2.36-1.11C127.12,51.84,127.93,50.36,128.48,49.37Z"/><path class="hat-1" d="M130.36,55.62l.1,0c-.69,1.46-1.38,3-2,4.53L126,59.09l2.46-4.35Z"/><path class="hat-1" d="M126.14,53.63l2.36,1.11L126,59.09,123.72,58Z"/><path class="hat-1" d="M126.14,53.63,123.72,58c-.67,1.21-1.37,2.47-2.07,3.76l-2.84-1.26-.18-.11A58.91,58.91,0,0,1,127.7,49l.15.15.63.26C127.93,50.36,127.12,51.84,126.14,53.63Z"/><path class="hat-1" d="M126,59.09l2.38,1.1-.54,1.27L126.55,64,124,62.81C124.66,61.56,125.36,60.31,126,59.09Z"/><path class="hat-1" d="M124.39,68l2.16-4,.27.13a71.51,71.51,0,0,0-3.49,11.49c-.09.64-.19,1.25-.31,1.84l-.54,1-2.94-1.35L122,72.53Z"/><path class="hat-1" d="M126.55,64l-2.16,4-2.64-1.27c.74-1.3,1.47-2.61,2.2-3.91Z"/><path class="hat-1" d="M123.72,58,126,59.09c-.68,1.22-1.38,2.47-2.09,3.72l-2.3-1C122.35,60.49,123.05,59.23,123.72,58Z"/><path class="hat-1" d="M121.75,66.72,124.39,68,122,72.53l-2.75-1.29Z"/><path class="hat-1" d="M121.65,61.78l2.3,1c-.73,1.3-1.46,2.61-2.2,3.91l-2.24-1.07Z"/><path class="hat-1" d="M119.81,83.28l2.67-4.88.54-1c-1,5-2.69,8.34-2.8,10.89H120l-2.34-1.15Z"/><path class="hat-1" d="M122.48,78.4l-2.67,4.88L117,81.81l2.55-4.76Z"/><path class="hat-1" d="M122,72.53l-2.42,4.52-2.85-1.32,2.52-4.49Z"/><path class="hat-1" d="M119.51,65.65l2.24,1.07-2.54,4.52-2.23-1Z"/><path class="hat-1" d="M118.81,60.52l2.84,1.26-2.14,3.87-2.78-1.33-.22-.11c.64-1.27,1.34-2.54,2.12-3.8Z"/><path class="hat-1" d="M120.31,89.55h0c-.09.17-.79,1.54-1.72,3.38l-3.18-1.63,2.28-4.16L120,88.3h.19A4.2,4.2,0,0,0,120.31,89.55Z"/><path class="hat-1" d="M119.81,83.28l-2.12,3.87-2.82-1.38,2.12-4Z"/><path class="hat-1" d="M119.54,77.05,117,81.81l-2.86-1.52c.77-1.39,1.64-2.92,2.56-4.56Z"/><path class="hat-1" d="M116.73,64.32l2.78,1.33L117,70.2,114.43,69l-.08,0c.63-1.58,1.34-3.17,2.16-4.76Z"/><path class="hat-1" d="M117,70.2l2.23,1-2.52,4.49-2.21-1Z"/><path class="hat-1" d="M113.34,95.09l2.07-3.78,3.18,1.63c-.49,1-1,2-1.59,3.13a38.85,38.85,0,0,0-2.07,4.07.36.36,0,0,1,0,.09l-.06.12-3.43-1.73Z"/><polygon class="hat-1" points="117.69 87.15 115.41 91.31 112.66 89.89 114.87 85.77 117.69 87.15"/><path class="hat-1" d="M117,81.81l-2.12,4-3-1.47c.62-1.11,1.38-2.47,2.25-4Z"/><path class="hat-1" d="M114.43,69,117,70.2l-2.5,4.51-1.77-.81-.08,0c.49-1.61,1.06-3.25,1.72-4.9Z"/><path class="hat-1" d="M114.48,74.71l2.21,1c-.92,1.64-1.79,3.17-2.56,4.56L112,79.14C112.53,78.19,113.4,76.63,114.48,74.71Z"/><polygon class="hat-1" points="112.66 89.89 115.41 91.31 113.34 95.09 110.67 93.6 112.66 89.89"/><path class="hat-1" d="M114.87,85.77l-2.21,4.12L110,88.54c0-.35,0-.7.07-1.05h0s.65-1.22,1.75-3.19Z"/><path class="hat-1" d="M113.51,103l1.32-2.64h0c-.94,2.12-1.56,3.88-1.56,3.88l-2.15,1.17a39.12,39.12,0,0,1-.69-3.93Z"/><path class="hat-1" d="M111.4,98.62l3.43,1.73L113.51,103l-3.07-1.52c-.14-1-.27-2.19-.36-3.51Z"/><path class="hat-1" d="M112.71,73.9l1.77.81c-1.08,1.92-2,3.48-2.5,4.43l-.63-.34c.35-1.61.77-3.26,1.28-4.93Z"/><path class="hat-1" d="M110.67,93.6l2.67,1.49-1.94,3.53L110.08,98c-.08-.91-.13-1.89-.17-2.94h0Z"/><path class="hat-1" d="M110.67,93.6,109.91,95c-.06-2,0-4.13.11-6.47l2.64,1.35Z"/><path class="hat-1" d="M112,79.14l2.15,1.15c-.87,1.54-1.63,2.9-2.25,4l-1.38-.67c.22-1.56.5-3.18.85-4.83Z"/><path class="hat-1" d="M110.5,83.63l1.38.67c-1.1,2-1.75,3.15-1.75,3.19h0C110.19,86.24,110.32,85,110.5,83.63Z"/><path class="hat-3" d="M114.93,100.14A38.85,38.85,0,0,1,117,96.07a13.81,13.81,0,0,1,1-1.41c.44-.57.82-1,1.15-1.46a18.13,18.13,0,0,1,1.86-2l.08-.07a3.63,3.63,0,0,1-.73-1.52"/><path class="hat-3" d="M109.91,95c0,1,.09,2,.17,2.94.09,1.32.22,2.5.36,3.51a39.12,39.12,0,0,0,.69,3.93l2.15-1.17s.62-1.76,1.56-3.88l0-.12"/><path class="hat-3" d="M138.69,40.19h0q-1.94,1.24-3.69,2.55A66.81,66.81,0,0,0,127.7,49a58.91,58.91,0,0,0-9.07,11.45c-.78,1.26-1.48,2.53-2.12,3.8-.82,1.59-1.53,3.18-2.16,4.76s-1.23,3.29-1.72,4.9-.93,3.32-1.28,4.93-.63,3.27-.85,4.83c-.18,1.32-.31,2.61-.41,3.86,0,.35,0,.7-.07,1.05-.16,2.34-.17,4.52-.11,6.47"/><path class="hat-3" d="M120.31,89.55a4.2,4.2,0,0,1-.09-1.24c.11-2.55,1.83-5.92,2.8-10.89.12-.59.22-1.2.31-1.84a71.51,71.51,0,0,1,3.49-11.49c.35-.88.7-1.76,1.06-2.63l.54-1.27c.66-1.55,1.35-3.07,2-4.53s1.49-3.1,2.21-4.53,1.3-2.53,1.91-3.66c2.25-4.22,4-7,4.1-7.27"/><path class="hat-3" d="M138.69,40.19a73.8,73.8,0,0,1,34.95-11.94c1.61-.13,3.26-.19,5-.19h8.47c1.69,0,3.34.06,4.95.19a73.8,73.8,0,0,1,35,11.94"/><path class="hat-3" d="M173.64,28.21s1.5-3.51,4.3-3.88h9.76c2.8.37,4.31,3.88,4.31,3.88"/><polyline class="hat-3" points="110.27 101.38 110.44 101.47 113.51 102.99 113.64 103.06"/><polyline class="hat-3" points="110.06 97.95 110.08 97.96 111.4 98.62 114.83 100.35 114.84 100.35 114.86 100.36"/><polyline class="hat-3" points="110.34 93.41 110.67 93.6 113.34 95.09 116.23 96.7"/><polyline class="hat-3" points="109.98 88.52 110.02 88.54 112.66 89.89 115.41 91.31 118.59 92.94 119.1 93.2"/><polyline class="hat-3" points="110.49 83.62 110.5 83.63 111.88 84.3 114.87 85.77 117.69 87.15 120.03 88.3"/><path class="hat-3" d="M111.2,78.72l.15.08.63.34,2.15,1.15L117,81.81l2.82,1.47c.67.34,1.1.56,1.15.56"/><polyline class="hat-3" points="112.71 73.9 114.48 74.71 116.69 75.73 119.54 77.05 122.48 78.4 122.69 78.5"/><polyline class="hat-3" points="114.43 69 116.98 70.2 119.21 71.24 121.96 72.53 123.48 73.24"/><polyline class="hat-3" points="116.73 64.32 119.51 65.65 121.75 66.72 124.39 67.99 125.13 68.34"/><polyline class="hat-3" points="118.81 60.52 121.65 61.78 123.95 62.81 126.55 63.96 126.82 64.09 126.85 64.1"/><polyline class="hat-3" points="121.39 56.94 123.72 58.02 126.04 59.09 128.42 60.19 128.5 60.23"/><polyline class="hat-3" points="124.62 52.91 126.14 53.63 128.5 54.74 130.36 55.62"/><polyline class="hat-3" points="127.85 49.11 128.48 49.37 130.94 50.4 132.59 51.09"/><polyline class="hat-3" points="131.08 46.12 132.94 46.83 134.58 47.47 134.67 47.5"/><path class="hat-3" d="M129.22,48l-.74,1.35c-.55,1-1.36,2.47-2.34,4.26L123.72,58c-.67,1.21-1.37,2.47-2.07,3.76l-2.14,3.87L117,70.2l-2.5,4.51c-1.08,1.92-2,3.48-2.5,4.43a9.82,9.82,0,0,1-.63,1"/><path class="hat-3" d="M110.13,87.49s.65-1.22,1.75-3.19c.62-1.11,1.38-2.47,2.25-4s1.64-2.92,2.56-4.56l2.52-4.49,2.54-4.52c.74-1.3,1.47-2.61,2.2-3.91s1.41-2.5,2.09-3.72l2.46-4.35,2.44-4.34,2-3.57c1.34-2.41,2.16-3.89,2.16-3.93"/><polyline class="hat-3" points="109.91 95.02 109.91 95.01 110.67 93.6 112.66 89.89 114.87 85.77 116.99 81.81 119.54 77.05 121.96 72.53 124.39 67.99 126.55 63.96 127.88 61.46 128 61.25"/><polyline class="hat-3" points="110.41 100.43 111.4 98.62 113.34 95.09 115.41 91.31 117.69 87.15 119.81 83.28 122.48 78.4 123.02 77.42 123.19 77.11"/><path class="hat-3" d="M112.85,104.38s.25-.56.66-1.39l1.32-2.64.06-.12a.36.36,0,0,0,0-.09L117,96.07c.56-1.11,1.1-2.18,1.59-3.13.93-1.84,1.63-3.21,1.72-3.38h0"/><path class="hat-3" d="M250.75,100.22A37.17,37.17,0,0,0,248.64,96a14.39,14.39,0,0,0-.94-1.38c-.44-.57-.82-1-1.16-1.45a13.88,13.88,0,0,0-1.93-2.13,3.63,3.63,0,0,0,.73-1.52"/><path class="hat-3" d="M255.56,98c-.1,1.33-.23,2.5-.36,3.5a39.12,39.12,0,0,1-.69,3.93l-2.15-1.17s-.62-1.76-1.55-3.88"/><path class="hat-3" d="M255.73,95c0,1-.09,2-.17,2.94"/><path class="hat-3" d="M227,40.19a0,0,0,0,1,0,0c1.29.83,2.51,1.68,3.69,2.55A66.81,66.81,0,0,1,238,49,59.68,59.68,0,0,1,247,60.41c.77,1.26,1.47,2.53,2.12,3.8.81,1.59,1.52,3.18,2.15,4.76s1.24,3.29,1.73,4.91.92,3.31,1.27,4.92.63,3.27.85,4.83c.18,1.32.31,2.61.41,3.86,0,.35,0,.7.07,1.05.16,2.34.17,4.51.11,6.47"/><path class="hat-3" d="M245.34,89.55a4.22,4.22,0,0,0,.09-1.24c-.11-2.56-1.85-5.94-2.81-10.91-.12-.58-.22-1.19-.31-1.82a70.44,70.44,0,0,0-3.48-11.49c-.35-.88-.7-1.75-1.06-2.62l-.54-1.28c-.66-1.55-1.35-3.07-2-4.53s-1.49-3.1-2.2-4.53-1.31-2.54-1.91-3.67c-2.26-4.21-4-7-4.11-7.26"/><path class="hat-3" d="M121.94,91.15c-1,3.58,2.68,5.33,2.68,5.33s1-.29,3.16-2.33S151.61,65.49,179,65.49h7.61c27.41,0,49.08,26.61,51.24,28.66A9.8,9.8,0,0,0,241,96.48s3.64-1.75,2.69-5.33a7.15,7.15,0,0,0-1.11-2.27c-3.59-5.12-24.83-30.26-56.55-30.26h-6.46c-31.72,0-53,25.14-56.55,30.26A7.31,7.31,0,0,0,121.94,91.15Z"/><polyline class="hat-3" points="255.38 101.38 255.2 101.47 252.13 102.99 252 103.06"/><polyline class="hat-3" points="255.59 97.95 255.56 97.96 255.56 97.97 254.24 98.63 250.81 100.35 250.78 100.36"/><polyline class="hat-3" points="255.3 93.41 254.97 93.6 252.3 95.09 249.42 96.7"/><polyline class="hat-3" points="255.66 88.52 255.62 88.54 252.99 89.89 250.23 91.31 247.06 92.94 246.55 93.2"/><polyline class="hat-3" points="255.16 83.62 255.14 83.63 253.77 84.3 250.78 85.77 247.96 87.15 245.62 88.3"/><path class="hat-3" d="M254.44,78.72l-.15.08-.63.34-2.14,1.14-2.87,1.52-2.81,1.48a12.55,12.55,0,0,1-1.16.56"/><polyline class="hat-3" points="252.94 73.9 251.17 74.72 248.96 75.73 246.11 77.05 243.17 78.4 242.96 78.5"/><polyline class="hat-3" points="251.21 69 248.66 70.2 246.43 71.24 243.69 72.53 242.17 73.24"/><polyline class="hat-3" points="248.92 64.32 246.13 65.65 243.9 66.72 241.26 67.99 240.52 68.34"/><polyline class="hat-3" points="246.84 60.52 244 61.78 241.69 62.81 239.1 63.96 238.83 64.09 238.8 64.1"/><polyline class="hat-3" points="244.25 56.94 241.92 58.02 239.6 59.09 237.23 60.19 237.15 60.23"/><polyline class="hat-3" points="241.02 52.91 239.51 53.62 237.15 54.74 235.28 55.62"/><polyline class="hat-3" points="237.79 49.11 237.17 49.37 234.71 50.4 233.06 51.09"/><polyline class="hat-3" points="234.56 46.12 232.71 46.83 231.08 47.46 230.98 47.5"/><path class="hat-3" d="M236.43,48l.74,1.35,2.34,4.25c.72,1.33,1.55,2.82,2.41,4.4L244,61.78c.71,1.28,1.42,2.58,2.13,3.87l2.53,4.55,2.51,4.52c1.07,1.92,2,3.47,2.49,4.42a10.76,10.76,0,0,0,.64,1"/><path class="hat-3" d="M255.52,87.49s-.65-1.22-1.75-3.19c-.62-1.11-1.39-2.47-2.25-4L249,75.73c-.8-1.43-1.65-2.94-2.53-4.49s-1.68-3-2.53-4.52l-2.21-3.91-2.09-3.72-2.45-4.35-2.44-4.34-2-3.57c-1.34-2.41-2.16-3.89-2.16-3.93"/><polyline class="hat-3" points="255.73 95.02 255.73 95.01 254.97 93.6 252.99 89.89 250.78 85.77 248.65 81.8 246.11 77.05 243.69 72.53 241.26 67.99 239.1 63.96 237.77 61.47 237.65 61.25"/><polyline class="hat-3" points="255.23 100.43 254.24 98.63 252.3 95.09 250.23 91.31 247.96 87.15 245.84 83.28 243.17 78.4 242.62 77.4 242.46 77.11"/><path class="hat-3" d="M252.79,104.38s-.25-.56-.66-1.39-.8-1.62-1.32-2.64l-.06-.13c-.66-1.3-1.4-2.76-2.11-4.18l-1.58-3.1-1.72-3.38h0"/><path d="M182.75,43.26a6.16,6.16,0,0,0-.75.05c-2.72.59-3.85,2.24-4.39,5.18a5.08,5.08,0,0,0,10.12-.32A4.85,4.85,0,0,0,182.75,43.26Z"/><path d="M193.35,41.92a13.51,13.51,0,0,1-1.68,9.14,12.13,12.13,0,0,1-7.4,5.89,31.72,31.72,0,0,0,3.27-.2c6.83-.76,11-4.48,12-11a7.93,7.93,0,0,0-.34-4.85A17.91,17.91,0,0,0,189,31.7a17.53,17.53,0,0,0-8.53-.93C187.7,32.12,192.34,36.05,193.35,41.92Z"/><path d="M167.45,42.88a13.13,13.13,0,0,1,13.81-5.42c5.56,1.07,9.41,4.12,10.68,9.77a52,52,0,0,0-.34-5.31A10.88,10.88,0,0,0,184.48,33a21.7,21.7,0,0,0-6.55-1.23A8.22,8.22,0,0,0,173.17,33c-6,3.46-9.73,10.36-8.78,16.48.39-1.11.7-2.28,1.2-3.37A17.82,17.82,0,0,1,167.45,42.88Z"/><path d="M168.68,59.66A8.56,8.56,0,0,1,172,59a9.56,9.56,0,0,1,1.09.06A12.12,12.12,0,0,1,171.45,49c1.43-5.77,6.3-9.54,11-9.47v-.25c-1.74,0-3.49-.12-5.21,0-4,.34-7.41,1.86-9.46,5.33a20.53,20.53,0,0,0-1.81,4.57,9.86,9.86,0,0,0,2.24,9.92C168.34,59.31,168.51,59.48,168.68,59.66Z"/><path d="M190,58.83c.74,0,1.5,0,2.26.09a6,6,0,0,1,1.28-.09,7.4,7.4,0,0,1,1.56,0c.61.06,1.12.13,1.58.2a16.37,16.37,0,0,0,4-11.42c-2.27,6.83-6.74,10.59-12.25,11.31l.29,0A8,8,0,0,1,190,58.83Z"/><path d="M176.85,58.92h1.39c.74-.07,1.48-.09,2.21-.09h.13a17.23,17.23,0,0,1,4,.2l.93,0c-6.14-.33-10.78-4.27-12.31-10.44a33.59,33.59,0,0,0,0,5.11,12,12,0,0,0,2.11,5.34A8,8,0,0,1,176.85,58.92Z"/></svg>