<svg id="head" xmlns="http://www.w3.org/2000/svg" viewBox="0 0 360 360"><defs><style>.frame{fill:#0089ff;}.visor{fill:#5aff2c;}.shadow{fill:none;stroke:#000;stroke-linecap:round;stroke-linejoin:round;stroke-width:0.62px;}.background{fill:#fff}</style></defs><rect width="100%" height="100%" class="background"/><path class="frame" d="M122.24,128.19h0c-.92,8.4-2.85,14.6-4.74,14.6l-8.21,0c2.23,0,4.53-8.74,5.14-19.5s-.71-19.49-2.94-19.49h8.22c1.2,0,2.14,2.51,2.65,6.51h0l-.29.71s-1.38,14.59-.88,15.62a9.33,9.33,0,0,0,.6.94Z"/><path class="frame" d="M121.21,126.66c-.5-1,.88-15.62.88-15.62l.29-.71,1.52-3.9.08-.2,2.15.85a14.47,14.47,0,0,0-.72,4c-.16,3,.37,5.34,1.19,5.34h2.84c.82,0,1.62-2.39,1.78-5.34l0-.64v0h1.85l-.24,10.41,0,.08c-4.33,2.6-10.13,6.18-11.1,6.78A9.33,9.33,0,0,1,121.21,126.66Z"/><path d="M217.07,216.09l-5,1.73,0-.06a3.66,3.66,0,0,0,.07-2.73l.14-.05Z"/><polygon class="frame" points="200.81 254.68 200.81 238.32 305.7 248.69 310.67 254.68 200.81 254.68"/><polygon class="frame" points="192.67 228.84 192.64 234.58 167.36 234.58 167.33 228.84 192.67 228.84"/><polygon class="frame" points="159.19 254.68 49.33 254.68 54.3 248.69 159.19 238.32 159.19 254.68"/><path class="frame" d="M127.2,105.69c-.38,0-.76.53-1.07,1.39l-2.15-.85,5.63-14.32,1-2.61a11.86,11.86,0,0,1,2.86-4l.18.17-.58,24.91h-1.85c.05-2.63-.46-4.65-1.21-4.64Z"/><polygon class="frame" points="233.64 215.82 233.64 225.62 220.68 222.83 219.87 220.37 233.64 215.82"/><path class="frame" d="M211.29,187.46a3.75,3.75,0,0,1-2.64,1.09H151.18a3.73,3.73,0,1,1,0-7.46h57.47a3.56,3.56,0,0,1,1.63.38,3.73,3.73,0,0,1,1,6Z"/><path class="frame" d="M208.65,197.05a3.73,3.73,0,1,1,0,7.46H151.18a3.73,3.73,0,1,1,0-7.46Z"/><path class="frame" d="M56.68,270.85v47.6l8.09,2H293.14l8.09-2v-47.6ZM305,327.12H55l-14.28-9.66,4.92-57.37,4.82,3.72h259l4.82-3.72,4.92,57.37Z"/><path class="frame" d="M111.49,103.83c2.23,0,3.55,8.72,2.94,19.49s-2.91,19.49-5.14,19.5c-1.77,0-3-5.44-3.09-13,0-2,0-4.18.15-6.45C107,112.57,109.26,103.84,111.49,103.83Z"/><path class="frame" d="M219.87,220.37l-19.67,6.5-7.5-2.28,12.65-4.41,6.75-2.36,5-1.73L212.29,215l-.14.05a3.72,3.72,0,0,0-3.5-2.45v-.09a3.75,3.75,0,0,0,2.64-1.09,3.69,3.69,0,0,0,.63-.84l.23.14,21.49,5.12Z"/><path class="frame" d="M141.23,158.88a88,88,0,0,0-8.7,3.69l-1.63-30.29,8.47,1.53Z"/><path class="frame" d="M124.7,131.3s-1.41-1.7-2.46-3.1h0l-.43-.59c1-.6,6.77-4.18,11.1-6.78,2.19-1.34,4-2.4,4.63-2.71a172.3,172.3,0,0,1,44.16-6.29c23.56,0,46.44,6.1,46.44,6.1.56.29,2.16,1.3,4.14,2.55l0,0c3.83,2.47,9,5.9,10.32,6.76l-.59.7c-1.21,1.4-2.82,3.11-2.82,3.11s-8.43-7.33-13.88-8.27A160.62,160.62,0,0,0,181,116.53c-24.72,0-41.42,6.43-41.42,6.43C133.82,125.34,124.7,131.3,124.7,131.3Z"/><path class="frame" d="M258.5,123c-.14,2.57-.4,5-.71,7.28-1,7.16-2.74,12.23-4.44,12.23-2.23,0-3.55-8.73-2.94-19.48s2.92-19.5,5.15-19.52S259.11,112.26,258.5,123Z"/><path class="frame" d="M161.56,226.7l-21.39-6.61-13.81-4.27,21.49-5.12.11-.07a3.71,3.71,0,0,0,3.22,1.86h57.47v.09H151.18a3.75,3.75,0,0,0-2.64,1.09,3.68,3.68,0,0,0-.84,1.31l-4.77,1.11,11.54,4,12.83,4.47Z"/><rect class="frame" x="64.77" y="276.03" width="228.37" height="44.45"/><path class="frame" d="M137.13,92.94l.13-2.36s.17-3.1,4.55-4,31.35-4.7,43.32-4.34l4.31,0a336.18,336.18,0,0,1,37.72,4.15c4.27.88,4.09,4,4.09,4l-.18,3.4h-.19s-1-2.06-4.42-3.35c-37.66-9.21-81.32-1.32-83.72-.74s-5.55,3.25-5.55,3.25Z"/><path class="frame" d="M243.25,126.41c.61-1,.88-15.62.88-15.62l-.2-.67c1-4,2.2-6.56,3.4-6.56H251l4.55,0c-2.23,0-4.55,8.75-5.15,19.52s.71,19.48,2.94,19.48h-8.23a.76.76,0,0,1-.38-.09h0c-1.65-.8-2.71-6.71-2.69-14.5l.59-.7C242.91,126.89,243.13,126.61,243.25,126.41Z"/><path class="frame" d="M126.6,116.37c.82,0,1.62-2.39,1.79-5.34s-.36-5.34-1.19-5.34H130c.75,0,1.26,2,1.21,4.64v0l0,.64c-.16,3-1,5.34-1.78,5.34Z"/><polygon class="frame" points="309.5 263.81 201.25 263.81 186.79 263.81 189.42 254.83 192.51 254.79 200.81 254.68 310.67 254.68 314.32 260.09 309.5 263.81"/><path class="frame" d="M148.54,174.2a3.75,3.75,0,0,1,2.64-1.09h57.47a3.73,3.73,0,1,1,0,7.46H151.18a3.73,3.73,0,0,1-2.64-6.37Z"/><path class="frame" d="M244.13,110.79s-.27,14.59-.88,15.62c-.12.2-.34.48-.62.84-1.32-.86-6.49-4.29-10.32-6.76l.18-.29s4-32.74,4.24-33.26l.17-.1h0a10.07,10.07,0,0,1,1,2.23l.74,2.53,5.29,18.51Z"/><path class="frame" d="M186.24,109.1a245,245,0,0,1,41.07,5.34,2,2,0,0,0,2.74-1.69l1-19,.18-3.4s.18-3.1-4.09-4a336.18,336.18,0,0,0-37.72-4.15l-4.31,0c-12-.36-38.95,3.43-43.32,4.34s-4.55,4-4.55,4l-.13,2.36-1.07,20s0,2.33,2.56,1.67,26.68-5.5,46.62-5.54Zm-48.7,9c-.61.31-2.44,1.37-4.63,2.71l0-.08.24-10.41.58-24.91-.18-.17a6.4,6.4,0,0,1,4.3-1.77s23.11-5.26,46.52-5.3,47.09,5.1,47.09,5.1a6.45,6.45,0,0,1,5.49,3.56l-.17.1c-.22.52-4.24,33.26-4.24,33.26l-.18.29,0,0c-2-1.25-3.58-2.26-4.14-2.55,0,0-22.88-6.14-46.44-6.1A172.3,172.3,0,0,0,137.54,118.11Z"/><path class="frame" d="M130.9,132.28s13.18-10.84,51.24-11.27a1.24,1.24,0,0,1,.27,0c38.08.27,50.05,11.07,50.05,11.07l-8.63,1.57s-15.08-8.58-40.72-8.53-43.74,8.7-43.74,8.7Z"/><polygon class="frame" points="64.77 276.03 56.68 270.85 301.23 270.85 293.14 276.03 64.77 276.03"/><path class="frame" d="M208.65,212.58a3.72,3.72,0,0,1,3.5,2.45,3.66,3.66,0,0,1-.07,2.73l0,.06-6.75,2.36,0-.14H154.5l0,.08-11.54-4L147.7,215a3.68,3.68,0,0,1,.84-1.31,3.75,3.75,0,0,1,2.64-1.09Z"/><polygon class="frame" points="192.6 240.32 192.56 246.07 167.44 246.07 167.4 240.32 192.6 240.32"/><path class="frame" d="M208.65,205a3.73,3.73,0,0,1,3.73,3.73l-.46,1.8a3.69,3.69,0,0,1-.63.84,3.75,3.75,0,0,1-2.64,1.09H151.18a3.71,3.71,0,0,1-3.22-1.86,3.62,3.62,0,0,1-.51-1.87,3.72,3.72,0,0,1,3.73-3.73Z"/><path class="frame" d="M128.39,111c-.17,3-1,5.33-1.79,5.34s-1.35-2.39-1.19-5.34a14.47,14.47,0,0,1,.72-4c.31-.86.69-1.38,1.07-1.39C128,105.69,128.55,108.08,128.39,111Z"/><path class="frame" d="M219.5,159.69l4.33-26.05,8.63-1.57-4.65,31.68A74.5,74.5,0,0,0,219.5,159.69Z"/><polygon class="frame" points="233.64 225.62 272.69 234.01 279.41 241.83 220.68 229.85 220.68 222.83 233.64 225.62"/><polygon class="frame" points="159.19 238.32 139.32 229.85 139.32 222.83 140.17 220.09 161.56 226.7 167.3 224.59 167.33 228.84 167.36 234.58 167.4 240.32 167.44 246.07 167.49 254.58 167.49 254.79 159.19 254.68 159.19 238.32"/><path class="frame" d="M208.65,188.55a3.73,3.73,0,0,0,1.63-7.08l.1-.21c4.32-1.54,6.86-3.42,6.86-5.46,0-1.81-2-3.49-5.48-4.93-6.57-2.71-18.4-4.52-31.9-4.52s-25.19,1.79-31.78,4.48c-3.55,1.44-5.6,3.14-5.6,5,0,2,2.51,4.19,6.74,5.72l.06.09a3.73,3.73,0,0,0,1.9,6.94ZM130.9,132.28l1.63,30.29a88,88,0,0,1,8.7-3.69A115.29,115.29,0,0,1,180,151.62h1.2a99,99,0,0,1,38.32,8.06,74.5,74.5,0,0,1,8.31,4.06l4.65-31.68s-12-10.8-50.05-11.07a1.24,1.24,0,0,0-.27,0C144.08,121.44,130.9,132.28,130.9,132.28Zm-8.66-4.08c1.05,1.4,2.46,3.1,2.46,3.1s9.12-6,14.83-8.34c0,0,16.7-6.38,41.42-6.43a160.62,160.62,0,0,1,44.39,6.26c5.45.94,13.88,8.27,13.88,8.27s1.61-1.71,2.82-3.11c0,7.79,1,13.7,2.69,14.5l-.06.1-8.25,30s-1.65,12.71-21.59,15.53c0,0-1.89.49-4.49,1l.09.52a3.7,3.7,0,0,0-1.78-.45H151.18a3.7,3.7,0,0,0-1.78.45l-.19-.49c-6.67-.43-22.58-3-26.28-17.67-4.71-18.69-5.43-28.56-5.43-28.56C119.39,142.8,121.32,136.6,122.24,128.2Z"/><path class="frame" d="M212.38,192.8a3.72,3.72,0,0,1-3.73,3.73H151.18a3.73,3.73,0,0,1-2.64-6.37,3.85,3.85,0,0,1,.86-.64,3.7,3.7,0,0,1,1.78-.45h57.47a3.72,3.72,0,0,1,3.73,3.73Z"/><polygon class="frame" points="301.23 270.85 301.23 318.45 293.14 320.48 293.14 276.03 301.23 270.85"/><path d="M208.65,180.57a3.73,3.73,0,0,0,0-7.46H151.18a3.73,3.73,0,0,0,0,7.46Zm-57.47-8h57.47a3.75,3.75,0,0,0,3.06-1.59l0-.13c3.48,1.44,5.48,3.12,5.48,4.93,0,2-2.54,3.92-6.86,5.46l-.1.21a3.56,3.56,0,0,0-1.63-.38H151.18a3.73,3.73,0,0,0-1.9.52l-.06-.09c-4.23-1.53-6.74-3.71-6.74-5.72,0-1.83,2.05-3.53,5.6-5l.1.25A3.72,3.72,0,0,0,151.18,172.59Z"/><polygon points="192.56 246.07 192.51 254.58 192.51 254.79 189.42 254.83 186.79 263.81 173.21 263.81 170.58 254.83 167.49 254.79 167.49 254.58 167.44 246.07 192.56 246.07"/><polygon class="frame" points="49.33 254.68 159.19 254.68 167.49 254.79 170.58 254.83 173.21 263.81 158.75 263.81 50.5 263.81 45.68 260.09 49.33 254.68"/><path class="frame" d="M208.65,172.59H151.18a3.72,3.72,0,0,1-3-1.51l-.1-.25c6.59-2.69,18.36-4.48,31.78-4.48s25.33,1.81,31.9,4.52l0,.13A3.75,3.75,0,0,1,208.65,172.59Z"/><polygon class="frame" points="220.68 229.85 200.81 238.32 200.81 254.68 192.51 254.79 192.51 254.58 192.56 246.07 192.6 240.32 192.64 234.58 192.67 228.84 192.7 224.59 200.2 226.87 219.87 220.37 220.68 222.83 220.68 229.85"/><polygon class="frame" points="200.81 238.32 220.68 229.85 279.41 241.83 305.7 248.69 200.81 238.32"/><path class="frame" d="M223.83,133.64l-4.33,26.05a99,99,0,0,0-38.32-8.06H180a115.29,115.29,0,0,0-38.75,7.26l-1.86-25.07s18.09-8.65,43.74-8.7S223.83,133.64,223.83,133.64ZM180,145.34c19.62-.05,27.74-7.1,27.74-7.1s2.42-2.42.48-4.23-4.81.46-4.81.46c-4.33,2-11.8,4.3-23,4.32-11.89,0-19.45-2.54-23.57-4.57,0,0-2.29-1.95-4.39-.18s.13,4.31.13,4.31S160.41,145.37,180,145.34Z"/><path d="M208.26,134c1.94,1.81-.48,4.23-.48,4.23s-8.12,7-27.74,7.1-27.46-7-27.46-7-2.23-2.54-.13-4.31,4.39.18,4.39.18c4.12,2,11.68,4.59,23.57,4.57,11.24,0,18.71-2.34,23-4.32C203.45,134.47,206.31,132.21,208.26,134Z"/><polygon class="frame" points="140.17 220.09 139.32 222.83 126.36 225.62 126.36 215.82 140.17 220.09"/><polygon class="frame" points="126.36 225.62 139.32 222.83 139.32 229.85 80.59 241.83 87.31 234.01 126.36 225.62"/><polygon class="frame" points="64.77 276.03 64.77 320.48 56.68 318.45 56.68 270.85 64.77 276.03"/><polygon class="frame" points="192.64 234.58 192.6 240.32 167.4 240.32 167.36 234.58 192.64 234.58"/><path class="visor" d="M136.06,113l1.07-20h.06s3.15-2.65,5.55-3.25,46.06-8.47,83.72.74c3.42,1.29,4.42,3.35,4.42,3.35h.19l-1,19a2,2,0,0,1-2.74,1.69,245,245,0,0,0-41.07-5.34l-1,0c-19.94,0-44.09,4.89-46.62,5.54S136.06,113,136.06,113Z"/><path class="frame" d="M122.36,110.33c-.51-4-1.45-6.52-2.65-6.51h-3.37a61.55,61.55,0,0,1-.58-8.41c0-35.53,31.18-62.53,68.53-62.53S251,59.88,251,95.41c0,2.22.23,5.71,0,7.87v.27h-3.68c-1.2,0-2.43,2.53-3.4,6.56l-5.29-18.51-.74-2.53a10.07,10.07,0,0,0-1-2.23h0a6.45,6.45,0,0,0-5.49-3.56s-23.67-5.15-47.09-5.1-46.52,5.3-46.52,5.3a6.4,6.4,0,0,0-4.3,1.77,11.86,11.86,0,0,0-2.86,4l-1,2.61L124,106.23l-.08.2-1.52,3.9Z"/><polygon class="frame" points="159.19 238.32 54.3 248.69 80.59 241.83 139.32 229.85 159.19 238.32"/><polygon class="frame" points="205.35 220.18 192.7 224.59 192.67 228.84 167.33 228.84 167.3 224.59 154.47 220.12 154.5 220.04 205.3 220.04 205.35 220.18"/><path class="shadow" d="M111.49,103.83c2.23,0,3.55,8.72,2.94,19.49s-2.91,19.49-5.14,19.5c-1.77,0-3-5.44-3.09-13,0-2,0-4.18.15-6.45C107,112.57,109.26,103.84,111.49,103.83Z"/><path class="shadow" d="M122.24,128.2c-.92,8.4-2.85,14.6-4.74,14.6l-8.21,0"/><path class="shadow" d="M122.29,127.76c0,.14,0,.29-.05.43"/><path class="shadow" d="M111.49,103.83h8.22c1.2,0,2.14,2.51,2.65,6.51"/><path class="shadow" d="M122.24,128.2c1.05,1.4,2.46,3.1,2.46,3.1s9.12-6,14.83-8.34c0,0,16.7-6.38,41.42-6.43a160.62,160.62,0,0,1,44.39,6.26c5.45.94,13.88,8.27,13.88,8.27s1.61-1.71,2.82-3.11l.59-.7c.28-.36.5-.64.62-.84.61-1,.88-15.62.88-15.62l-.2-.67-5.29-18.51-.74-2.53a10.07,10.07,0,0,0-1-2.23h0a6.45,6.45,0,0,0-5.49-3.56s-23.67-5.15-47.09-5.1-46.52,5.3-46.52,5.3a6.4,6.4,0,0,0-4.3,1.77,11.86,11.86,0,0,0-2.86,4l-1,2.61L124,106.23l-.08.2-1.52,3.9-.29.71s-1.38,14.59-.88,15.62a9.33,9.33,0,0,0,.6.94l.43.59Z"/><path class="shadow" d="M255.56,103.53c-2.23,0-4.55,8.75-5.15,19.52s.71,19.48,2.94,19.48c1.7,0,3.44-5.07,4.44-12.23.31-2.25.57-4.71.71-7.28C259.11,112.26,257.78,103.54,255.56,103.53Z"/><path class="shadow" d="M242,127.51c0,.15,0,.3,0,.44,0,7.79,1,13.7,2.69,14.5h0a.76.76,0,0,0,.38.09h8.23"/><path class="shadow" d="M255.56,103.53l-4.55,0h-3.68c-1.2,0-2.43,2.53-3.4,6.56,0,.08,0,.18-.06.28"/><path class="shadow" d="M137.13,92.94l-1.07,20s0,2.33,2.56,1.67,26.68-5.5,46.62-5.54l1,0a245,245,0,0,1,41.07,5.34,2,2,0,0,0,2.74-1.69l1-19,.18-3.4s.18-3.1-4.09-4a336.18,336.18,0,0,0-37.72-4.15l-4.31,0c-12-.36-38.95,3.43-43.32,4.34s-4.55,4-4.55,4Z"/><path class="shadow" d="M242.93,127.45l-.3-.2c-1.32-.86-6.49-4.29-10.32-6.76l0,0c-2-1.25-3.58-2.26-4.14-2.55,0,0-22.88-6.14-46.44-6.1a172.3,172.3,0,0,0-44.16,6.29c-.61.31-2.44,1.37-4.63,2.71-4.33,2.6-10.13,6.18-11.1,6.78l-.15.09"/><path class="shadow" d="M210.19,189l.15,0c2.6-.47,4.49-1,4.49-1,19.94-2.82,21.59-15.53,21.59-15.53l8.25-30"/><path class="shadow" d="M117.5,142.8s.72,9.87,5.43,28.56c3.7,14.67,19.61,17.24,26.28,17.67"/><path class="shadow" d="M130.9,132.28l8.47,1.53s18.09-8.65,43.74-8.7,40.72,8.53,40.72,8.53l8.63-1.57"/><polyline class="shadow" points="139.37 133.81 141.23 158.88 141.26 159.27"/><path class="shadow" d="M182.41,121c.57,0,1.15,0,1.73,0"/><path class="shadow" d="M180.49,121c.56,0,1.1,0,1.65,0a1.24,1.24,0,0,1,.27,0c38.08.27,50.05,11.07,50.05,11.07l-4.65,31.68a74.5,74.5,0,0,0-8.31-4.06,99,99,0,0,0-38.32-8.06H180a115.29,115.29,0,0,0-38.75,7.26,88,88,0,0,0-8.7,3.69l-1.63-30.29s13.18-10.84,51.24-11.27"/><polyline class="shadow" points="223.83 133.64 219.5 159.69 219.47 159.89"/><polyline class="shadow" points="133.68 85.42 133.1 110.33 132.86 120.74"/><path class="shadow" d="M236.73,86.94c-.22.52-4.24,33.26-4.24,33.26"/><path class="shadow" d="M127.2,105.69c.83,0,1.35,2.39,1.19,5.34s-1,5.33-1.79,5.34-1.35-2.39-1.19-5.34a14.47,14.47,0,0,1,.72-4C126.44,106.22,126.82,105.7,127.2,105.69Z"/><path class="shadow" d="M127.2,105.69H130c.75,0,1.26,2,1.21,4.64v0l0,.64c-.16,3-1,5.34-1.78,5.34H126.6"/><path class="shadow" d="M152.58,138.35s7.83,7,27.46,7,27.74-7.1,27.74-7.1,2.42-2.42.48-4.23-4.81.46-4.81.46c-4.33,2-11.8,4.3-23,4.32-11.89,0-19.45-2.54-23.57-4.57,0,0-2.29-1.95-4.39-.18S152.58,138.35,152.58,138.35Z"/><path class="shadow" d="M137.19,92.94s3.15-2.65,5.55-3.25,46.06-8.47,83.72.74c3.42,1.29,4.42,3.35,4.42,3.35"/><path class="shadow" d="M149.22,181.52c-4.23-1.53-6.74-3.71-6.74-5.72,0-1.83,2.05-3.53,5.6-5,6.59-2.69,18.36-4.48,31.78-4.48s25.33,1.81,31.9,4.52c3.48,1.44,5.48,3.12,5.48,4.93,0,2-2.54,3.92-6.86,5.46"/><path class="shadow" d="M211.71,171a3.75,3.75,0,0,1-3.06,1.59H151.18a3.72,3.72,0,0,1-3-1.51"/><path class="shadow" d="M208.65,180.57H151.18a3.73,3.73,0,1,1,0-7.46h57.47a3.73,3.73,0,1,1,0,7.46Z"/><path class="shadow" d="M210.28,181.47a3.73,3.73,0,0,1-1.63,7.08H151.18a3.73,3.73,0,1,1,0-7.46h57.47A3.56,3.56,0,0,1,210.28,181.47Z"/><path class="shadow" d="M210.43,189.52a3.73,3.73,0,0,1-1.78,7H151.18a3.73,3.73,0,0,1-2.64-6.37,3.85,3.85,0,0,1,.86-.64,3.7,3.7,0,0,1,1.78-.45h57.47A3.7,3.7,0,0,1,210.43,189.52Z"/><path class="shadow" d="M208.65,204.51H151.18a3.73,3.73,0,1,1,0-7.46h57.47a3.73,3.73,0,1,1,0,7.46Z"/><path class="shadow" d="M208.65,212.49H151.18a3.71,3.71,0,0,1-3.22-1.86,3.62,3.62,0,0,1-.51-1.87,3.72,3.72,0,0,1,3.73-3.73h57.47a3.73,3.73,0,0,1,3.73,3.73l-.46,1.8a3.69,3.69,0,0,1-.63.84A3.75,3.75,0,0,1,208.65,212.49Z"/><line class="shadow" x1="205.3" y1="220.04" x2="154.5" y2="220.04"/><path class="shadow" d="M147.74,217.76a3.72,3.72,0,0,1,0-2.78,3.68,3.68,0,0,1,.84-1.31,3.75,3.75,0,0,1,2.64-1.09h57.47a3.72,3.72,0,0,1,3.5,2.45,3.66,3.66,0,0,1-.07,2.73"/><polygon class="shadow" points="126.36 225.62 87.31 234.01 80.59 241.83 139.32 229.85 139.32 222.83 126.36 225.62"/><polyline class="shadow" points="80.59 241.83 54.3 248.69 49.33 254.68 159.19 254.68 159.19 238.32 139.32 229.85"/><polyline class="shadow" points="147.85 210.7 126.36 215.82 126.36 225.62 126.36 225.64"/><polyline class="shadow" points="167.49 254.58 167.44 246.07 167.4 240.32 167.36 234.58 167.33 228.84 167.3 224.59 154.47 220.12 142.93 216.09 147.7 214.98 147.71 214.98"/><polyline class="shadow" points="49.33 254.68 45.68 260.09 50.5 263.81 158.75 263.81 173.21 263.81 170.58 254.83 167.49 254.79 159.19 254.68"/><polyline class="shadow" points="45.68 260.09 40.76 317.46 55.04 327.12 304.96 327.12 319.24 317.46 314.32 260.09"/><line class="shadow" x1="167.3" y1="224.59" x2="161.56" y2="226.7"/><polyline class="shadow" points="161.56 226.7 140.17 220.09 126.36 215.82"/><polygon class="shadow" points="233.64 225.62 272.69 234.01 279.41 241.83 220.68 229.85 220.68 222.83 233.64 225.62"/><polyline class="shadow" points="279.41 241.83 305.7 248.69 310.67 254.68 200.81 254.68 200.81 238.32 220.68 229.85"/><polyline class="shadow" points="212.15 210.7 233.64 215.82 233.64 225.62 233.64 225.64"/><polyline class="shadow" points="192.51 254.58 192.56 246.07 192.6 240.32 192.64 234.58 192.67 228.84 192.7 224.59 205.35 220.18 212.1 217.82 217.07 216.09 212.29 214.98"/><polyline class="shadow" points="200.81 254.68 192.51 254.79 189.42 254.83 186.79 263.81 201.25 263.81 309.5 263.81 314.32 260.09 310.67 254.68"/><polyline class="shadow" points="233.64 215.82 219.87 220.37 200.2 226.87 192.7 224.59"/><polyline class="shadow" points="167.05 228.84 167.33 228.84 192.67 228.84 192.82 228.84"/><polyline class="shadow" points="167.05 234.58 167.36 234.58 192.64 234.58 192.82 234.58"/><polyline class="shadow" points="167.05 240.32 167.4 240.32 192.6 240.32 192.82 240.32"/><polyline class="shadow" points="167.05 246.07 167.44 246.07 192.56 246.07 192.82 246.07"/><line class="shadow" x1="173.21" y1="263.81" x2="186.79" y2="263.81"/><polyline class="shadow" points="64.77 320.48 56.68 318.45 56.68 270.85 301.23 270.85 301.23 318.45 293.14 320.48"/><rect class="shadow" x="64.77" y="276.03" width="228.37" height="44.45"/><line class="shadow" x1="293.14" y1="276.03" x2="301.23" y2="270.85"/><line class="shadow" x1="64.77" y1="276.03" x2="56.68" y2="270.85"/><line class="shadow" x1="159.19" y1="238.32" x2="54.3" y2="248.69"/><line class="shadow" x1="200.81" y1="238.32" x2="305.7" y2="248.69"/><path class="shadow" d="M116.38,104.11c0-.1,0-.19,0-.29a61.55,61.55,0,0,1-.58-8.41c0-35.53,31.18-62.53,68.53-62.53S251,59.88,251,95.41c0,2.22.23,5.71,0,7.87"/></svg>
