<svg id="bunny_ears" data-name="bunny ears" xmlns="http://www.w3.org/2000/svg" viewBox="0 0 360 360"><defs><style>.ear-outer{fill:#ff99f5;}.ear-inner{fill:#d861a5;}.outline{fill:none;stroke:#000;stroke-linecap:round;stroke-linejoin:round;}</style></defs><path class="ear-outer" d="M253.68,49.58a16.47,16.47,0,0,1-6.84-.26c-3.84-1-6.13-3.35-2.72-5.88,6.65-4.95,10.64-28.31,16.79-33.62s10.84-.36,20.9,5.5,22.22-.63,9.06,19.79c-10.34,16-33.24,47.05-39.65,55.93l-4.78-3.82c3.93-6.83,21.12-33.08,26.62-40.09,6.89-8.77,9.23-17.63,7.71-18.44l0-.08c-7.79,4.39-17.91,15-22.37,18.91A9.67,9.67,0,0,1,253.68,49.58Z"/><path class="ear-inner" d="M280.77,28.69c1.52.81-.82,9.67-7.71,18.44-5.5,7-22.69,33.26-26.62,40.09.11-.35-1-12.68-1-12.68,2-6.51,7.21-23.18,8.22-25a9.67,9.67,0,0,0,4.67-2.06c4.46-3.88,14.58-14.52,22.37-18.91Z"/><path class="ear-outer" d="M246.84,49.32a16.47,16.47,0,0,0,6.84.26c-1,1.78-6.26,18.45-8.22,25,0,0,1.09,12.33,1,12.68l-5.72-14.17a165.36,165.36,0,0,1,6-23.36Z"/><path class="ear-outer" d="M122.94,79.74l2.55-6.15C125.61,74,124.15,77.11,122.94,79.74Z"/><path class="ear-outer" d="M122.89,79.85l-1.47,3.56A20.8,20.8,0,0,1,122.89,79.85Z"/><path class="ear-outer" d="M117.32,49.58a16.47,16.47,0,0,0,6.84-.26l.1.37a163.82,163.82,0,0,1,6,23.36l-4.79.54C123.45,66.79,118.3,51.29,117.32,49.58Z"/><path class="ear-outer" d="M80.13,35.11c-13.16-20.42-1-13.92,9.06-19.79s14.74-10.8,20.9-5.5,10.14,28.67,16.79,33.62c3.41,2.53,1.12,4.88-2.72,5.88a16.47,16.47,0,0,1-6.84.26,9.67,9.67,0,0,1-4.67-2.06C108.19,43.64,98.07,33,90.28,28.61l0,.08c-1.52.81.82,9.67,7.71,18.44,5.5,7,19.55,29.45,23.48,36.28l-4.78,3.81C110.24,78.35,90.47,51.15,80.13,35.11Z"/><path class="ear-inner" d="M121.42,83.41c-3.93-6.83-18-29.27-23.48-36.28-6.89-8.77-9.23-17.63-7.71-18.44l0-.08c7.79,4.38,17.91,15,22.37,18.91a9.67,9.67,0,0,0,4.67,2.06c1,1.71,6.13,17.21,8.17,24l-2.55,6.15,0,.11A20.8,20.8,0,0,0,121.42,83.41Z"/><path class="outline" d="M90.23,28.69c-1.52.81.82,9.67,7.71,18.44,5.5,7,19.55,29.45,23.48,36.28l-4.78,3.81c-6.4-8.87-26.17-36.07-36.51-52.11-13.16-20.42-1-13.92,9.06-19.79s14.74-10.8,20.9-5.5,10.14,28.67,16.79,33.62c3.41,2.53,1.12,4.88-2.72,5.88a16.47,16.47,0,0,1-6.84.26,9.67,9.67,0,0,1-4.67-2.06C108.19,43.64,98.07,33,90.28,28.61c-2.41-1.36-4.6-2.12-6.33-1.89"/><path class="outline" d="M122.94,79.74l2.55-6.15,4.79-.54a163.82,163.82,0,0,0-6-23.36"/><path class="outline" d="M122.89,79.85a20.8,20.8,0,0,0-1.47,3.56l1.47-3.56"/><line class="outline" x1="122.89" y1="79.85" x2="122.94" y2="79.74"/><path class="outline" d="M117.27,49.5l0,.08c1,1.71,6.13,17.21,8.17,24,.12.39-1.34,3.52-2.55,6.15"/><path class="outline" d="M280.77,28.69c1.52.81-.82,9.67-7.71,18.44-5.5,7-22.69,33.26-26.62,40.09L251.22,91c6.41-8.88,29.31-39.89,39.65-55.93,13.16-20.42,1-13.92-9.06-19.79s-14.74-10.8-20.9-5.5-10.14,28.67-16.79,33.62c-3.41,2.53-1.12,4.88,2.72,5.88a16.47,16.47,0,0,0,6.84.26,9.67,9.67,0,0,0,4.67-2.06c4.46-3.88,14.58-14.52,22.37-18.91,2.41-1.36,4.6-2.12,6.33-1.89"/><path class="outline" d="M253.73,49.5a.56.56,0,0,0,0,.08c-1,1.78-6.26,18.45-8.22,25,0,0,1.09,12.33,1,12.68l-5.72-14.17a165.36,165.36,0,0,1,6-23.36"/></svg>