<svg id="cowboyhat" xmlns="http://www.w3.org/2000/svg" viewBox="0 0 360 360"><defs><style>.hatband{fill:#492d1a;}.hat{fill:#6b452b;}.outline{fill:none;stroke:#000;stroke-linecap:round;stroke-linejoin:round;}</style></defs><path class="hatband" d="M143.13,63.33C121.33,66.94,116,84,116,84l0,16.78c-8.06-1.77-27-5.38-31.57-12a22,22,0,0,1-3-16.66,34.43,34.43,0,0,1,7.84-15.31c7.32-8.65,18.84-14.76,29.89-12.29,1.52.5,3,1,4.48,1.45l0,0c7.81,3.36,14,10.21,20.89,15.53.57.44,1.14.87,1.73,1.29l0,0S144.76,63,143.13,63.33Z"/><path class="hatband" d="M223.25,63.11l-.08-.11c.7-.49,1.4-1,2.08-1.53,6.87-5.32,13.07-12.17,20.88-15.53l.05,0c1.46-.46,2.95-1,4.47-1.45,11.06-2.47,22.58,3.64,29.89,12.29a34.44,34.44,0,0,1,7.85,15.31c1.12,5.69.27,11.89-3,16.66-4.46,6.47-26.51,12.78-34.36,14.55L249.68,83s-3.82-16.57-24.62-19.75C224.7,63.47,223.25,63.11,223.25,63.11Z"/><path class="hat" d="M246.13,45.94c-7.81,3.36-14,10.21-20.88,15.53-.68.53-1.38,1-2.08,1.53a68,68,0,0,1-33,12.12l-9,.12a67.92,67.92,0,0,1-34.86-12.48c-.59-.42-1.16-.85-1.73-1.29-6.87-5.32-13.08-12.17-20.89-15.53q5.58,1.77,10.65,3.18h0c1.66.46,3.27.89,4.85,1.3,27.41,7.2,42.31,6.86,42.31,6.86h6.85s14.56.33,41.38-6.61c1.52-.39,3.07-.81,4.67-1.25Q239.94,47.9,246.13,45.94Z"/><path class="hatband" d="M234.26,49l.11.4c-1.6.44-3.15.86-4.67,1.25l-.14-.56A259.73,259.73,0,0,0,183,45.9c-25.88,0-43.73,4.22-43.73,4.22l-.08.31c-1.58-.41-3.19-.84-4.85-1.3h0l0-.09s2.23-3.8,5-8.74c1.36-.31,18.8-4.2,43.64-4.2a261.24,261.24,0,0,1,46.27,4.16C232,45.21,234.26,49,234.26,49Z"/><path class="hat" d="M229.56,50.12l.14.56c-26.82,6.94-41.38,6.61-41.38,6.61h-6.85s-14.9.34-42.31-6.86l.08-.31S157.09,45.9,183,45.9A259.73,259.73,0,0,1,229.56,50.12Z"/><path class="hat" d="M219.27,20.15c1.27,4.12,6.13,13.21,10,20.1A261.24,261.24,0,0,0,183,36.09c-24.84,0-42.28,3.89-43.64,4.2,3.85-6.9,8.72-16,10-20.14C151.5,13.07,159.4,1.9,175.75,7.62c0,0,4.36,3.81,7.63,3.81s9.47-3.81,9.47-3.81C209.19,1.9,217.09,13.07,219.27,20.15Z"/><path class="outline" d="M123.62,45.92a25.77,25.77,0,0,0-4.48-1.45c-11-2.47-22.57,3.64-29.89,12.29a34.43,34.43,0,0,0-7.84,15.31,22,22,0,0,0,3,16.66C89,95.37,107.94,99,116,100.75L116,84s5.38-17,27.18-20.64c1.63-.34,3.13-.54,3.13-.54"/><path class="outline" d="M246.13,45.94c-7.81,3.36-14,10.21-20.88,15.53-.68.53-1.38,1-2.08,1.53a68,68,0,0,1-33,12.12l-9,.12a67.92,67.92,0,0,1-34.86-12.48c-.59-.42-1.16-.85-1.73-1.29-6.87-5.32-13.08-12.17-20.89-15.53"/><path class="outline" d="M223.25,63.11s1.45.36,1.81.09C245.86,66.38,249.68,83,249.68,83L251,103.28c7.85-1.77,29.9-8.08,34.36-14.55,3.3-4.77,4.15-11,3-16.66a34.44,34.44,0,0,0-7.85-15.31c-7.31-8.65-18.83-14.76-29.89-12.29a25.94,25.94,0,0,0-4.47,1.45"/><path class="outline" d="M250.65,44.47c-1.52.5-3,1-4.47,1.45l-.05,0q-6.19,2-11.76,3.49c-1.6.44-3.15.86-4.67,1.25-26.82,6.94-41.38,6.61-41.38,6.61h-6.85s-14.9.34-42.31-6.86c-1.58-.41-3.19-.84-4.85-1.3h0q-5.07-1.41-10.65-3.18l0,0c-1.47-.46-3-1-4.48-1.45"/><path class="outline" d="M234.26,49s-2.24-3.82-5-8.78c-3.84-6.89-8.7-16-10-20.1-2.18-7.08-10.08-18.25-26.42-12.53,0,0-6.2,3.81-9.47,3.81s-7.63-3.81-7.63-3.81C159.4,1.9,151.5,13.07,149.32,20.15c-1.27,4.13-6.14,13.24-10,20.14-2.76,4.94-5,8.74-5,8.74"/><path class="outline" d="M172.48,18.24S161.86,27,154,29.14"/><path class="outline" d="M192.91,17.15s7.36,8.18,18.53,10.09"/><path class="outline" d="M139.24,40.31l.09,0c1.36-.31,18.8-4.2,43.64-4.2a261.24,261.24,0,0,1,46.27,4.16l.32.06"/><path class="outline" d="M139.24,50.12S157.09,45.9,183,45.9a259.73,259.73,0,0,1,46.59,4.22"/></svg>