<svg id="doom_mask" data-name="doom mask" xmlns="http://www.w3.org/2000/svg" viewBox="0 0 360 360"><defs><style>.mask-1{fill:#747678;}.mask-2{fill:#a3a5a8;}.mask-3{fill:#3d3d3d;}.eyes{fill:#5aff2c;}.mask-4{fill:#5d5e61;}.outline{fill:none;stroke:#000;stroke-linecap:round;stroke-linejoin:round;stroke-width:1.06px;}</style></defs><path class="mask-1" d="M266.48,97.41l6.36,9.25L263.16,108h0a68.27,68.27,0,0,0,3.34-10.55Z"/><path class="mask-1" d="M266.48,95.1a4.26,4.26,0,0,1,0,2.31A68.27,68.27,0,0,1,263.13,108c-.87,2.27-1.56,3.91-1.56,3.91-3.18-4.74-5.49-13.88-5.49-13.88s.72-8.66,1.87-11.41C258,86.58,265.33,92.78,266.48,95.1Z"/><path class="mask-2" d="M262.44,113a12,12,0,0,1,3,8.67c-4.93,5.34-29.05,13.88-29.05,13.88L235,145s-3.55,27.32-3.61,27.32,0,0,0,0l-12.16-1.65L213,108.2l26.75-1,8.37-.3s7.22-1.73,7.95-9c0,0,2.31,9.14,5.49,13.88A11.3,11.3,0,0,0,262.44,113Z"/><path class="mask-3" d="M265.48,121.7,257.23,135,235,145l1.46-9.39S260.55,127,265.48,121.7Z"/><path class="mask-2" d="M243.5,52.9C263.3,64.6,259.11,83.83,258,86.58S256.08,98,256.08,98c-.73,7.23-7.95,9-7.95,9l-8.37.3v-.15a24.17,24.17,0,0,0,7-9.89h0c4.76-13.08-5.27-26.81-14.67-29-27.75-4.49-47.12,13-47.12,13-2.32-1.5-2.89-3.07-2.89-4.35a4.32,4.32,0,0,1,.11-1c.14-.74.42-1.31.46-1.61.15-.87,3-5.63,11-14,3.59-3.77,10-8,17.85-10.47C221,46.79,232.62,46.46,243.5,52.9Z"/><path class="mask-3" d="M232.09,68.22c9.4,2.18,19.43,15.91,14.67,29h0l-.21-.09s0-19.51-21.25-21-30.5,7.08-35.55,13.44l.44,5.78,7.79,22.4-8.19-13.12-.19-.32L185,81.23S204.34,63.73,232.09,68.22Z"/><path class="eyes" d="M246.54,97.12l.21.09a24.17,24.17,0,0,1-7,9.89v.15l-26.75,1-2.17,3.43-.29-.19s-16.92-10.41-20.37-16l-.44-5.78c5-6.36,14.3-14.88,35.55-13.44S246.54,97.12,246.54,97.12Z"/><path class="mask-4" d="M219.17,170.64l12.16,1.65c-.33.35-2.43,4.76-2.43,4.76l-14.54,2.46Z"/><polygon class="mask-1" points="213.01 108.2 219.17 170.64 214.36 179.51 203.37 127.48 202.79 124.39 210.84 111.63 213.01 108.2"/><path class="mask-4" d="M211.42,49.58l.06.22c-7.81,2.45-14.26,6.7-17.85,10.47-7.94,8.39-10.83,13.15-11,14,0,.3-.32.87-.46,1.61l-.1,0V38L184,32.23C191,39.74,211.42,49.58,211.42,49.58Z"/><path class="mask-1" d="M210.84,111.63l-8.05,12.76L183.52,124h-3l-19.27.38-8.05-12.77.3-.18s16.91-10.41,20.38-16l-7.81,22.4H198l-7.79-22.4c3.45,5.64,20.37,16,20.37,16Z"/><polygon class="mask-4" points="202.79 124.39 203.37 127.48 183.33 127.48 180.77 127.48 160.73 127.48 161.31 124.39 180.57 124.01 183.52 124.01 202.79 124.39"/><polygon class="mask-3" points="189.78 104.67 197.97 117.79 188.29 117.79 175.81 117.79 166.12 117.79 174.29 104.69 174.44 104.78 189.59 104.78 189.78 104.67"/><path class="mask-2" d="M189.59,104.35l.19.32-.19.11H174.44l-.15-.09.21-.34,4.63-23.12c2.31-1.5,2.9-3.07,2.9-4.35h.05c0,1.28.57,2.85,2.89,4.35Z"/><polygon class="mask-2" points="183.96 32.23 182.09 38.01 180.15 32.23 181.73 32.23 182.37 32.23 183.96 32.23"/><path class="mask-2" d="M182.09,75.88l.1,0a4.32,4.32,0,0,0-.11,1H182a9,9,0,0,0-.59-2.59c-.14-.87-3-5.63-11-14-3.57-3.77-10-8-17.85-10.48l.07-.21s20.38-9.84,27.47-17.35L182.09,38Z"/><path class="mask-2" d="M181.44,74.29a9,9,0,0,1,.59,2.59c0,1.28-.59,2.85-2.9,4.35,0,0-19.36-17.5-47.12-13-9.4,2.18-19.43,15.9-14.66,29a24.2,24.2,0,0,0,7,9.9v.15L116,107s-7.23-1.73-8-9c0,0-.72-8.66-1.88-11.41s-5.35-22,14.45-33.68c10.89-6.44,22.48-6.11,32-3.11,7.82,2.46,14.28,6.71,17.85,10.48C178.41,68.66,181.3,73.42,181.44,74.29Z"/><path class="mask-3" d="M179.13,81.23l-4.63,23.12-.21.34-8.17,13.1,7.81-22.4.44-5.78c-5.07-6.36-14.32-14.88-35.56-13.44s-21.25,21-21.25,21l-.21.08c-4.77-13.08,5.26-26.8,14.66-29C159.77,63.73,179.13,81.23,179.13,81.23Z"/><path class="eyes" d="M174.37,89.61l-.44,5.78c-3.47,5.64-20.38,16-20.38,16l-.3.18-2.15-3.42-26.75-1v-.15a24.2,24.2,0,0,1-7-9.9l.21-.08s0-19.51,21.25-21S169.3,83.25,174.37,89.61Z"/><polygon class="mask-1" points="153.25 111.62 161.31 124.39 160.73 127.48 149.74 179.51 144.92 170.64 151.1 108.2 153.25 111.62"/><path class="mask-2" d="M151.1,108.2l-6.18,62.44-12.15,1.65s0,0,0,0S129.12,145,129.12,145l-1.44-9.39S103.54,127,98.63,121.7a12,12,0,0,1,3-8.67,10,10,0,0,0,.87-1.16C105.71,107.13,108,98,108,98c.72,7.23,8,9,8,9l8.38.3Z"/><path class="mask-4" d="M144.92,170.64l4.82,8.87-14.55-2.46s-2.09-4.41-2.42-4.76Z"/><path class="mask-3" d="M127.68,135.58l1.44,9.39-22.26-10L98.63,121.7C103.54,127,127.68,135.58,127.68,135.58Z"/><path class="mask-1" d="M106.14,86.58C107.3,89.33,108,98,108,98s-2.31,9.14-5.49,13.88c0,0-.69-1.64-1.56-3.91a71,71,0,0,1-3.35-10.55,4.36,4.36,0,0,1,0-2.31C98.77,92.78,106.14,86.58,106.14,86.58Z"/><path class="mask-1" d="M101,108h0l-9.68-1.31,6.35-9.25h0A71,71,0,0,0,101,108Z"/><polygon class="outline" points="160.73 127.48 180.77 127.48 183.33 127.48 203.37 127.48 214.36 179.51 219.17 170.64 213.01 108.2 210.84 111.63 202.79 124.39 183.52 124.01 180.57 124.01 161.31 124.39 153.25 111.62 151.1 108.2 144.92 170.64 149.74 179.51 160.73 127.48"/><line class="outline" x1="161.3" y1="124.39" x2="160.73" y2="127.48"/><path class="outline" d="M151.1,108.2l-26.75-1L116,107s-7.23-1.73-8-9c0,0-2.31,9.14-5.49,13.88a10,10,0,0,1-.87,1.16,12,12,0,0,0-3,8.67L106.86,135l22.26,10s3.57,27.32,3.62,27.32,0,0,0,0c.33.35,2.42,4.76,2.42,4.76l14.55,2.46"/><polyline class="outline" points="144.92 170.64 132.77 172.29 132.74 172.29"/><path class="outline" d="M129.12,145l-1.44-9.39S103.54,127,98.63,121.7"/><path class="outline" d="M108,98s-.72-8.66-1.88-11.41-5.35-22,14.45-33.68c10.89-6.44,22.48-6.11,32-3.11,7.82,2.46,14.28,6.71,17.85,10.48,7.95,8.39,10.84,13.15,11,14a9,9,0,0,1,.59,2.59c0,1.28-.59,2.85-2.9,4.35,0,0-19.36-17.5-47.12-13-9.4,2.18-19.43,15.9-14.66,29a24.2,24.2,0,0,0,7,9.9"/><path class="outline" d="M173.93,95.39l.44-5.78c-5.07-6.36-14.32-14.88-35.56-13.44s-21.25,21-21.25,21"/><path class="outline" d="M179.13,81.23l-4.63,23.12-.21.34-8.17,13.1,7.81-22.4c-3.47,5.64-20.38,16-20.38,16"/><polyline class="outline" points="166.12 117.79 175.81 117.79 188.29 117.79 197.97 117.79"/><path class="outline" d="M106.14,86.58s-7.37,6.2-8.53,8.52a4.36,4.36,0,0,0,0,2.31A71,71,0,0,0,101,108c.87,2.27,1.56,3.91,1.56,3.91"/><polyline class="outline" points="97.61 97.41 91.26 106.66 100.94 107.97"/><line class="outline" x1="202.79" y1="124.39" x2="203.37" y2="127.48"/><path class="outline" d="M213,108.2l26.75-1,8.37-.3s7.22-1.73,7.95-9c0,0,2.31,9.14,5.49,13.88a11.3,11.3,0,0,0,.87,1.16,12,12,0,0,1,3,8.67L257.23,135,235,145s-3.55,27.32-3.61,27.32,0,0,0,0c-.33.35-2.43,4.76-2.43,4.76l-14.54,2.46"/><polyline class="outline" points="219.17 170.64 231.33 172.29 231.36 172.29"/><path class="outline" d="M235,145l1.46-9.39s24.12-8.54,29.05-13.88"/><path class="outline" d="M256.08,98s.72-8.66,1.87-11.41,5.35-22-14.45-33.68c-10.88-6.44-22.47-6.11-32-3.1-7.81,2.45-14.26,6.7-17.85,10.47-7.94,8.39-10.83,13.15-11,14,0,.3-.32.87-.46,1.61a4.32,4.32,0,0,0-.11,1c0,1.28.57,2.85,2.89,4.35,0,0,19.37-17.5,47.12-13,9.4,2.18,19.43,15.91,14.67,29h0a24.17,24.17,0,0,1-7,9.89"/><path class="outline" d="M190.18,95.39l-.44-5.78c5-6.36,14.3-14.88,35.55-13.44s21.25,21,21.25,21"/><path class="outline" d="M185,81.23l4.62,23.12.19.32L198,117.79l-7.79-22.4c3.45,5.64,20.37,16,20.37,16"/><path class="outline" d="M211.42,49.58S191,39.74,184,32.23h-3.81c-7.09,7.51-27.47,17.35-27.47,17.35"/><path class="outline" d="M258,86.58s7.38,6.2,8.53,8.52a4.26,4.26,0,0,1,0,2.31A68.27,68.27,0,0,1,263.13,108c-.87,2.27-1.56,3.91-1.56,3.91"/><polyline class="outline" points="266.48 97.41 272.84 106.66 263.16 107.97"/><polyline class="outline" points="182.09 75.88 182.09 38.01 183.96 32.23"/><line class="outline" x1="182.09" y1="38.01" x2="180.15" y2="32.23"/><line class="outline" x1="174.44" y1="104.78" x2="189.59" y2="104.78"/></svg>