<svg id="fro" xmlns="http://www.w3.org/2000/svg" viewBox="0 0 360 360"><defs><style>.fro{fill:#684734;stroke:#000;stroke-miterlimit:10;stroke-width:0.96px;}</style></defs><path class="fro" d="M178,2.49c-47,.18-97.13,37.37-94.59,108.33s61.31,87.48,64,88.64c.93-3,2.54-3,2.54-3s-2.18-2.49-2.18-5,2.73-2.81,2.73-2.81-10.15-2.85-15.16-4.46c-11.78-4.84-13.22-13.8-13.22-13.8l-5.89-29.47s-5.63,1.61-7.41.26-3.31-11.82-3.31-11.82,18-16.13,18-32.26V81l9.92-16.4s8.14,4.31,42.72,4.31h7.44c34.58,0,42.72-4.31,42.72-4.31L236.3,81V97.11c0,16.13,18,32.26,18,32.26s-1.53,10.48-3.31,11.82-7.41-.26-7.41-.26l-5.89,29.47s-1.44,9-13.22,13.8c-5,1.61-14.88,4.46-14.88,4.46s2.9.94,2.9,3.45-3.27,4.63-3.27,4.63a3.53,3.53,0,0,1,3.36,2.82c2.71-1.17,61.3-17.78,63.84-88.74S228.92,2.67,181.88,2.49Z"/></svg>