<svg id="headphones" xmlns="http://www.w3.org/2000/svg" viewBox="0 0 360 360"><defs><style>.earphones-1{fill:#eec746;}.earphones-2{fill:#ff99f5;}.earphones-3{fill:#c96fc9;}.earphones-4{fill:#d6b321;}.earphones-5{fill:none;stroke:#000;stroke-linecap:round;stroke-linejoin:round;stroke-width:0.97px;}</style></defs><path class="earphones-1" d="M264,133.71c3.92-13.53,3.53-27.11-2.38-34.71l9.88,3.67s14.91,17.42-.94,37.31c-4,1.23-11,4-12.12,4.48C260.53,142.18,262.5,138.78,264,133.71Z"/><path d="M258.48,47.79l-6.26,7.66S235,44.55,227.1,41.89l0-.12a15.17,15.17,0,0,0,3.45-1.33,24.93,24.93,0,0,0,7.09-6l.09.09C245.88,37.49,258.48,47.79,258.48,47.79Z"/><path class="earphones-2" d="M258.41,144.46A12.73,12.73,0,0,1,244.58,148l-1.43-.3A36.61,36.61,0,0,1,245,142.8a27.25,27.25,0,0,0,1.14-3.71c2.73,0,6.13-4,8-13.67s-4-18.35-4-18.35H250a125,125,0,0,0-1.46-14.29l.78.06a17.44,17.44,0,0,1,6.57,1.58,15.06,15.06,0,0,1,3.47,2.24,17.41,17.41,0,0,1,2.2,2.34c5.91,7.6,6.3,21.18,2.38,34.71C262.5,138.78,260.53,142.18,258.41,144.46Z"/><path d="M246.16,139.09c1.77-6.9,3.93-19.89,4-27.6,0-1.49,0-3-.09-4.42h.1s5.9,8.61,4,18.35S248.89,139.06,246.16,139.09Z"/><path class="earphones-3" d="M248.57,92.78s-.63-1.81-.73-2.3-2-2.13-2-2.13l6.37-32.9,6.26-7.66C260.57,56,256,94.19,256,94.19l-.11.23a17.44,17.44,0,0,0-6.57-1.58Z"/><path class="earphones-4" d="M237.7,30.34a3,3,0,0,1,.66,3.13v0l-.75.92a24.93,24.93,0,0,1-7.09,6,15.17,15.17,0,0,1-3.45,1.33,8.84,8.84,0,0,1-5.37-.14s-19.47-5.89-31.32-5.89H175.62c-11.85,0-31.32,5.89-31.32,5.89a8.84,8.84,0,0,1-5.37.14,15.17,15.17,0,0,1-3.45-1.33,24.79,24.79,0,0,1-7.09-6c-.61-.74-1.13-1.42-1.52-2-.3-1.18,1.43-2.1,1.43-2.1s28.63-9.89,47.91-9.89H189.8C209.07,20.45,237.7,30.34,237.7,30.34Z"/><path class="earphones-2" d="M258.48,47.79s-12.6-10.3-20.78-13.29l-.09-.09.75-.92v0c.44-.56.79-1,1.08-1.46H240c10.52,3.15,21.79,14.13,21.79,14.13,2.12,5.85-2.18,48.74-2.35,50.52a15.06,15.06,0,0,0-3.47-2.24l.11-.23S260.57,56,258.48,47.79Z"/><path d="M107.52,47.79s12.6-10.3,20.78-13.29l.09-.09a24.79,24.79,0,0,0,7.09,6,15.17,15.17,0,0,0,3.45,1.33l0,.12c-7.84,2.66-25.12,13.56-25.12,13.56Z"/><path class="earphones-1" d="M240,31.21l-.54.8c-.29.41-.64.9-1.08,1.46a3,3,0,0,0-.66-3.13s-28.63-9.89-47.9-9.89H176.21c-19.28,0-47.91,9.89-47.91,9.89s-1.73.92-1.43,2.1c-.17-.23-.32-.44-.44-.63s-.32-.46-.41-.6c-.74-1.12-.87-4.05.19-5.36S148.67,14.29,177,14.29H189c28.37,0,49.76,10.26,50.82,11.56S240.72,30.09,240,31.21Z"/><path class="earphones-2" d="M104.27,46.14s11.26-11,21.78-14.13l.38-.2c.12.19.27.4.44.63.39.55.91,1.23,1.52,2l-.09.09c-8.18,3-20.78,13.29-20.78,13.29C105.43,56,110,92.21,110,92.21l.11.23a15.05,15.05,0,0,0-3.47,2.21C106.44,92.9,102.13,52,104.27,46.14Z"/><path class="earphones-2" d="M107.29,142.46c-2.11-2.29-4.05-5.72-5.49-10.78C98,118.12,98.44,104.54,104.41,97a16.27,16.27,0,0,1,2.22-2.32,15.05,15.05,0,0,1,3.47-2.21,17.53,17.53,0,0,1,6.58-1.54l.78-.05a125.21,125.21,0,0,0-1.55,14.27h-.09s-6,8.58-4.15,18.32,5.16,13.67,7.89,13.73a29.54,29.54,0,0,0,1.12,3.72,34.11,34.11,0,0,1,1.84,4.91l-1.42.28A12.76,12.76,0,0,1,107.29,142.46Z"/><path class="earphones-3" d="M113.78,55.45l6.44,31s-1.89,1.63-2,2.12-.76,2.3-.76,2.3l-.78.05a17.53,17.53,0,0,0-6.58,1.54l-.11-.23S105.43,56,107.52,47.79Z"/><path d="M115.79,109.54c0,7.71,2.06,20.71,3.77,27.63-2.73-.06-6.09-4-7.89-13.73s4.15-18.32,4.15-18.32h.09C115.84,106.57,115.79,108.05,115.79,109.54Z"/><path class="earphones-1" d="M94.52,100.58,104.41,97c-6,7.57-6.44,21.15-2.61,34.71,1.44,5.06,3.38,8.49,5.49,10.78-1.07-.44-8.11-3.31-12.09-4.56C79.47,117.9,94.52,100.58,94.52,100.58Z"/><path class="earphones-5" d="M115.82,105.12s-6,8.58-4.15,18.32,5.16,13.67,7.89,13.73h.06"/><path class="earphones-5" d="M104.62,96.9l-.21.07-9.89,3.61s-15,17.32.68,37.32c4,1.25,11,4.12,12.09,4.56l.14,0"/><path class="earphones-5" d="M106.64,94.7a.28.28,0,0,0,0,0c-.19-1.75-4.5-42.66-2.36-48.51,0,0,11.26-11,21.78-14.13"/><path class="earphones-5" d="M110,92.21S105.43,56,107.52,47.79c0,0,12.6-10.3,20.78-13.29"/><path class="earphones-5" d="M138.9,41.89c-7.84,2.66-25.12,13.56-25.12,13.56l-6.26-7.66"/><path class="earphones-5" d="M117.46,90.85a125.21,125.21,0,0,0-1.55,14.27c-.07,1.45-.12,2.93-.12,4.42,0,7.71,2.06,20.71,3.77,27.63a29.54,29.54,0,0,0,1.12,3.72,34.11,34.11,0,0,1,1.84,4.91l-1.42.28a12.76,12.76,0,0,1-13.81-3.62c-2.11-2.29-4.05-5.72-5.49-10.78C98,118.12,98.44,104.54,104.41,97a16.27,16.27,0,0,1,2.22-2.32,15.05,15.05,0,0,1,3.47-2.21,17.53,17.53,0,0,1,6.58-1.54l.78-.05s.66-1.81.76-2.3,2-2.12,2-2.12l-6.44-31"/><path class="earphones-5" d="M126.89,32.5s0,0,0-.06c-.3-1.18,1.43-2.1,1.43-2.1s28.63-9.89,47.91-9.89H189.8c19.27,0,47.9,9.89,47.9,9.89a3,3,0,0,1,.66,3.13"/><path class="earphones-5" d="M250.13,107.07s5.9,8.61,4,18.35-5.27,13.64-8,13.67h0"/><path class="earphones-5" d="M261.38,98.92l.21.08,9.88,3.67s14.91,17.42-.94,37.31c-4,1.23-11,4-12.12,4.48l-.14.06"/><path class="earphones-5" d="M259.38,96.72a.28.28,0,0,1,0-.06c.17-1.78,4.47-44.67,2.35-50.52,0,0-11.27-11-21.79-14.13"/><path class="earphones-5" d="M256,94.19s4.54-38.17,2.45-46.4c0,0-12.6-10.3-20.78-13.29"/><path class="earphones-5" d="M227.1,41.89c7.85,2.66,25.12,13.56,25.12,13.56l6.26-7.66"/><path class="earphones-5" d="M248.57,92.78A125,125,0,0,1,250,107.07c.07,1.45.1,2.93.09,4.42,0,7.71-2.19,20.7-4,27.6A27.25,27.25,0,0,1,245,142.8a36.61,36.61,0,0,0-1.87,4.89l1.43.3a12.73,12.73,0,0,0,13.83-3.53c2.12-2.28,4.09-5.68,5.56-10.75,3.92-13.53,3.53-27.11-2.38-34.71a17.41,17.41,0,0,0-2.2-2.34,15.06,15.06,0,0,0-3.47-2.24,17.44,17.44,0,0,0-6.57-1.58l-.78-.06s-.63-1.81-.73-2.3-2-2.13-2-2.13l6.37-32.9"/><path class="earphones-5" d="M138.93,41.77a8.84,8.84,0,0,0,5.37-.14s19.47-5.89,31.32-5.89h14.76c11.85,0,31.32,5.89,31.32,5.89a8.84,8.84,0,0,0,5.37.14,15.17,15.17,0,0,0,3.45-1.33,24.93,24.93,0,0,0,7.09-6l.75-.92v0c.44-.56.79-1,1.08-1.46l.54-.8c.74-1.12.87-4.05-.2-5.36S217.33,14.29,189,14.29H177c-28.37,0-49.76,10.26-50.83,11.56s-.93,4.24-.19,5.36c.09.14.23.35.41.6s.27.4.44.63c.39.55.91,1.23,1.52,2a24.79,24.79,0,0,0,7.09,6A15.17,15.17,0,0,0,138.93,41.77Z"/><line class="earphones-5" x1="87.21" y1="84.97" x2="91.24" y2="91.24"/><line class="earphones-5" x1="83.22" y1="127" x2="75.47" y2="131.96"/><line class="earphones-5" x1="74.82" y1="108.46" x2="83.5" y2="110.35"/><line class="earphones-5" x1="277.14" y1="87.48" x2="273.06" y2="93.71"/><line class="earphones-5" x1="280.85" y1="129.53" x2="288.55" y2="134.54"/><line class="earphones-5" x1="289.37" y1="111.04" x2="280.67" y2="112.87"/></svg>