<svg id="stach" xmlns="http://www.w3.org/2000/svg" viewBox="0 0 360 360"><defs><style>.mo-1{fill:#7c5f3c;}.mo-2{fill:none;stroke:#000;stroke-linecap:round;stroke-linejoin:round;stroke-width:1.13px;}</style></defs><path class="mo-1" d="M183.19,132.88A30.26,30.26,0,0,1,183,143.3c-2.5,13.8-19.61,18.29-36.48,21s-30-5.29-31.4-20.17c-1.41-14.56,8.7-21,9.13-21.26-.18.15-3.18,2.73-3.07,9.47.11,6.94,10.58,9.59,17.08,5.18s10.14-15.43,21.82-19,20.17,9.92,20.17,9.92l0,0a20.23,20.23,0,0,1,2.66,2.29,10.51,10.51,0,0,1,0,2Z"/><path class="mo-1" d="M184.4,130.85a20,20,0,0,1,2.67-2.29l0,0s8.48-13.44,20.16-9.92,15.32,14.55,21.83,19,17,1.76,17.08-5.18c.11-6.74-2.9-9.32-3.08-9.47.43.26,10.54,6.7,9.14,21.26-1.43,14.88-14.55,22.92-31.41,20.17s-34-7.25-36.48-21a30.39,30.39,0,0,1-.22-10.42l.3,0A10.51,10.51,0,0,1,184.4,130.85Z"/><path class="mo-1" d="M196.27,67.63h0c-.48-.6-3.62-4.86-.79-8.83,3.05-4.29,18.55-11.86,32.73-7.5s16.56,15.06,16.56,15.06-15.65-9.12-24.4-5-10.7,5.67-10.7,5.67-6.94,4.36-10,3.83A4.52,4.52,0,0,1,196.27,67.63Z"/><path class="mo-1" d="M166.06,51.75a4.51,4.51,0,0,1-2.55,4c-2.86,1.23-10.62-1.43-10.62-1.43s-2.25-1-11.72-3.06-22.61,10.42-22.61,10.42-.14-11,12.67-18.46,29.63-3.68,33.58-.2C168.5,46.21,166.36,51.11,166.06,51.75Z"/><path class="mo-2" d="M157.73,128.86c9.51-7.71,18.25-3.4,22.46-.3a20.23,20.23,0,0,1,2.66,2.29s-11.24-1.66-22.26,9.58"/><path class="mo-2" d="M124.22,122.91h0c-.43.26-10.54,6.7-9.13,21.26,1.43,14.88,14.54,22.92,31.4,20.17s34-7.25,36.48-21a30.26,30.26,0,0,0,.23-10.42"/><path class="mo-2" d="M180.21,128.53s-8.49-13.44-20.17-9.92-15.32,14.55-21.82,19-17,1.76-17.08-5.18c-.11-6.74,2.89-9.32,3.07-9.47"/><path class="mo-2" d="M182.85,130.85a10.51,10.51,0,0,1,0,2c-.3,4.44-3,15.36-21.19,23"/><path class="mo-2" d="M153.76,146s-19.51,12.31-27.61,1.24"/><path class="mo-2" d="M166.06,51.75c.09-2-1.13-4.46-4.8-6.33"/><path class="mo-2" d="M166.06,51.75c.3-.64,2.44-5.54-1.25-8.78-3.95-3.48-20.78-7.29-33.58.2s-12.67,18.46-12.67,18.46,13.15-12.47,22.61-10.42,11.72,3.06,11.72,3.06,7.76,2.66,10.62,1.43A4.51,4.51,0,0,0,166.06,51.75Z"/><path class="mo-2" d="M166,51.82l0-.07"/><path class="mo-2" d="M209.53,128.86c-9.51-7.7-18.24-3.41-22.46-.3a20,20,0,0,0-2.67,2.29s11.24-1.66,22.26,9.58"/><path class="mo-2" d="M243,122.91h0c.43.26,10.54,6.7,9.14,21.26-1.43,14.88-14.55,22.92-31.41,20.17s-34-7.25-36.48-21a30.39,30.39,0,0,1-.22-10.42"/><path class="mo-2" d="M187.05,128.53s8.48-13.44,20.16-9.92,15.32,14.55,21.83,19,17,1.76,17.08-5.18c.11-6.74-2.9-9.32-3.08-9.47"/><path class="mo-2" d="M184.4,130.85a10.51,10.51,0,0,0,0,2h0c.29,4.45,3,15.37,21.18,23"/><path class="mo-2" d="M213.5,146s19.5,12.31,27.6,1.24"/><path class="mo-2" d="M196.27,67.62c-.55-2,.09-4.61,3.22-7.26"/><path class="mo-2" d="M196.32,67.69l0-.06h0c-.48-.6-3.62-4.86-.79-8.83,3.05-4.29,18.55-11.86,32.73-7.5s16.56,15.06,16.56,15.06-15.65-9.12-24.4-5-10.7,5.67-10.7,5.67-6.94,4.36-10,3.83a4.52,4.52,0,0,1-3.39-3.26"/></svg>