<svg id="nose" xmlns="http://www.w3.org/2000/svg" viewBox="0 0 360 360"><defs><style>.nose-1{fill:#ffd3bd;}.nose-2{fill:#e5b19a;}.nose-3,.nose-4{fill:none;}.nose-4{stroke:#000;stroke-miterlimit:10;stroke-width:0.96px;}</style></defs><path class="nose-1" d="M172.73,128.08l-.2.12a7.9,7.9,0,1,1,.4-12.64,12.42,12.42,0,0,1,3.09-3.41,12.37,12.37,0,0,1,14.76-.19,12.09,12.09,0,0,1,3.2,3.37l.17-.1a7.9,7.9,0,1,1,.19,13.13l-.13-.08a12.38,12.38,0,0,1-21.48-.2Z"/><path class="nose-2" d="M206,119l-.29.33a5.6,5.6,0,0,1-2.48,1.44,12.67,12.67,0,0,1-1.53.2,5.61,5.61,0,0,1-2.81-.76l-1.13-.87a5.57,5.57,0,0,1-1.43-2.46c-.07-.49-.13-1-.2-1.48a4.36,4.36,0,0,1,.11-1.15,8.46,8.46,0,0,0-1.57.68,7.86,7.86,0,0,1,.06,1.29v.12a10.41,10.41,0,0,1-1.43,5.28c-.54.71-1.09,1.41-1.64,2.12a10.3,10.3,0,0,1-4.62,2.69l-2.78.38a11.6,11.6,0,0,1-7.41-3.07,7.83,7.83,0,0,1-2.16-3.37,7.78,7.78,0,0,1-.9-4v-.12a10.57,10.57,0,0,1,.25-2.19,12.54,12.54,0,0,0-1.15,1.56,8,8,0,0,0-2.21-1.25,4.39,4.39,0,0,1,.44,2.06c0,.15-.07.55-.1.74a5.7,5.7,0,0,1-.11.77s-.56,1.33-.56,1.34h0l-.87,1.13a4.83,4.83,0,0,1-.57.45,2.91,2.91,0,0,1-1.25.72c.39-.16-.46.22-.68.29h0l-1.48.2h-.09a5.67,5.67,0,0,1-2.81-.76l-1.12-.87a5.45,5.45,0,0,1-.94-1.26,7.9,7.9,0,0,0,12,9.06l.2-.12a12.38,12.38,0,0,0,21.48.2l.13.08A7.89,7.89,0,0,0,206,119Z"/><path class="nose-3" d="M172.73,128.08l-.2.12a7.9,7.9,0,1,1,.4-12.64,12.42,12.42,0,0,1,3.09-3.41,12.37,12.37,0,0,1,14.76-.19,12.09,12.09,0,0,1,3.2,3.37l.17-.1a7.9,7.9,0,1,1,.19,13.13l-.13-.08a12.38,12.38,0,0,1-21.48-.2Z"/><path class="nose-1" d="M183.53,109.61a12.28,12.28,0,0,0-7.51,2.54l-.12-.16,4.58-28.86h5.82l4.51,28.79,0,0A12.29,12.29,0,0,0,183.53,109.61Z"/><path class="nose-2" d="M180.48,83.13,175.9,112l.12.16a12.42,12.42,0,0,0-3.09,3.41,7.88,7.88,0,0,0-7.28-1.37l9.52-27.28A5.63,5.63,0,0,1,180.48,83.13Z"/><path class="nose-2" d="M198.65,113.83a7.92,7.92,0,0,0-4.5,1.4l-.17.1a12.09,12.09,0,0,0-3.2-3.37l0,0L186.3,83.13a5.65,5.65,0,0,1,3.26,1,5.71,5.71,0,0,1,2.05,2.74l9.48,27.15-.05.14A7.91,7.91,0,0,0,198.65,113.83Z"/><path class="nose-4" d="M165.64,114.22v0l9.52-27.28a5.63,5.63,0,0,1,5.31-3.78h5.82a5.65,5.65,0,0,1,3.26,1,5.71,5.71,0,0,1,2.05,2.74l9.48,27.15"/><path class="nose-4" d="M172.53,128.2a7.9,7.9,0,1,1,.4-12.64"/><path class="nose-4" d="M194.15,115.23a7.9,7.9,0,1,1,.19,13.13"/><path class="nose-4" d="M172.08,117.25a12.72,12.72,0,0,1,.85-1.69,12.42,12.42,0,0,1,3.09-3.41,12.37,12.37,0,0,1,14.76-.19,12.09,12.09,0,0,1,3.2,3.37,11.53,11.53,0,0,1,.72,1.29"/><path class="nose-4" d="M195.92,122a12.4,12.4,0,0,1-24.79,0"/><path class="nose-4" d="M172.73,128.08l-.2.12a7.9,7.9,0,1,1,.4-12.64,12.42,12.42,0,0,1,3.09-3.41,12.37,12.37,0,0,1,14.76-.19,12.09,12.09,0,0,1,3.2,3.37l.17-.1a7.9,7.9,0,1,1,.19,13.13l-.13-.08a12.38,12.38,0,0,1-21.48-.2Z"/></svg>