<svg id="huge_glasses" data-name="huge glasses" xmlns="http://www.w3.org/2000/svg" xmlns:xlink="http://www.w3.org/1999/xlink" viewBox="0 0 360 360"><defs><style>.glasses-1{fill:#231f20;}.glasses-2{fill:#c4c6c8;}.glasses-3,.glasses-4,.glasses-5{fill:none;}.glasses-3,.glasses-4,.glasses-5,.glasses-7,.glasses-8{stroke:#000;stroke-linecap:round;stroke-linejoin:round;}.glasses-3{stroke-width:0.22px;}.glasses-4,.glasses-7,.glasses-8{stroke-width:0.24px;}.glasses-5{stroke-width:0.24px;}.glasses-6{fill:#fff;}.glasses-7{fill:url(#linear-gradient);}.glasses-8{fill:url(#linear-gradient-2);}</style><linearGradient id="linear-gradient" x1="102.51" y1="126.94" x2="163.68" y2="126.94" gradientUnits="userSpaceOnUse"><stop offset="0" stop-color="#fff"/><stop offset="0.04" stop-color="#dbdbdb" stop-opacity="0.86"/><stop offset="0.1" stop-color="#adadad" stop-opacity="0.68"/><stop offset="0.16" stop-color="#848484" stop-opacity="0.52"/><stop offset="0.23" stop-color="#606060" stop-opacity="0.38"/><stop offset="0.31" stop-color="#424242" stop-opacity="0.26"/><stop offset="0.39" stop-color="#2a2a2a" stop-opacity="0.16"/><stop offset="0.48" stop-color="#171717" stop-opacity="0.09"/><stop offset="0.59" stop-color="#0a0a0a" stop-opacity="0.04"/><stop offset="0.72" stop-color="#020202" stop-opacity="0.01"/><stop offset="1" stop-opacity="0"/></linearGradient><linearGradient id="linear-gradient-2" x1="216.02" y1="135.84" x2="254.4" y2="103.64" gradientUnits="userSpaceOnUse"><stop offset="0" stop-color="#fff" stop-opacity="0.6"/><stop offset="0.09" stop-color="#ccc" stop-opacity="0.48"/><stop offset="0.22" stop-color="#8d8d8d" stop-opacity="0.33"/><stop offset="0.35" stop-color="#5a5a5a" stop-opacity="0.21"/><stop offset="0.49" stop-color="#323232" stop-opacity="0.12"/><stop offset="0.64" stop-color="#161616" stop-opacity="0.05"/><stop offset="0.8" stop-color="#050505" stop-opacity="0.01"/><stop offset="1" stop-opacity="0"/></linearGradient></defs><path d="M284.36,97.6s.13,1.56-2.09,2.27-5.91,3.4-7,10.07-4.31,24.69-8,32.22-12.19,11.63-18.23,12.2-27.47,1.85-36.22-5.25-19.21-26.82-21.8-38.46c-1.72-6.1-2.09-9.22-6.16-9.51h-2.27c-4.06.29-4.43,3.41-6.16,9.51-2.58,11.64-13.06,31.36-21.8,38.46s-30.18,5.82-36.22,5.25-14.53-4.68-18.23-12.2-6.9-25.55-8-32.22-4.8-9.37-7-10.07S83,97.6,83,97.6V88.66s.35-5.6,1.44-6.6l0,0a.81.81,0,0,0-.25.72V93.61s-.12,1.55,2.07,2.25,5.84,3.36,6.93,10,4.26,24.39,7.91,31.82,12,11.5,18,12.06,27.14,1.82,35.78-5.19,19-26.49,21.54-38c1.71-6,2.07-9.11,6.09-9.39h2.24c4,.28,4.38,3.36,6.08,9.39,2.56,11.5,12.9,31,21.54,38s29.81,5.75,35.78,5.19,14.36-4.63,18-12.06,6.81-25.23,7.91-31.82,4.74-9.25,6.93-10,2.07-2.25,2.07-2.25V82.82a.28.28,0,0,0,0-.09,21.31,21.31,0,0,1,1.21,4.58Z"/><path class="glasses-1" d="M283.15,82.73a.28.28,0,0,1,0,.09V93.61s.12,1.55-2.07,2.25-5.84,3.36-6.93,10-4.26,24.39-7.91,31.82-12.05,11.5-18,12.06-27.14,1.82-35.78-5.19-19-26.49-21.54-38c-1.7-6-2.07-9.11-6.08-9.39h-2.24c-4,.28-4.38,3.36-6.09,9.39-2.55,11.5-12.9,31-21.54,38s-29.81,5.75-35.78,5.19-14.35-4.63-18-12.06-6.81-25.23-7.91-31.82-4.74-9.25-6.93-10-2.07-2.25-2.07-2.25V82.82a.81.81,0,0,1,.25-.72c.25-.22.66-.29,1-.54,3-1.68,31.45-7.85,45.45-7.85s38.21,4.34,42.83,6.59a43.39,43.39,0,0,1,10.19-1c6.49,0,9.58,1,9.58,1,4.62-2.25,28.84-6.59,42.83-6.59s42.47,6.17,45.46,7.85C282.45,82,283.15,81.91,283.15,82.73Zm-3.9,4.94V87.3a2.52,2.52,0,0,0-2.52-2.52h-4.89a2.52,2.52,0,0,0-2.51,2.52v.37a2.52,2.52,0,0,0,2.51,2.51h4.89A2.52,2.52,0,0,0,279.25,87.67Zm-11.8,18.88c2.65-20.77-17.73-24.69-17.73-24.69-12-4.45-31.13-.44-39.61,2.35s-11.59,12.39-9.7,25.92,12,24.69,17.8,28.8c11.21,7.33,31.74,4.8,37.87.61S264.8,127.32,267.45,106.55ZM167,110.13c1.9-13.53-1.21-23.12-9.69-25.92s-27.65-6.8-39.62-2.35c0,0-20.38,3.92-17.72,24.69s5.22,28.8,11.36,33,26.66,6.72,37.87-.61C155,134.82,165.09,123.66,167,110.13ZM98.06,87.67V87.3a2.51,2.51,0,0,0-2.51-2.52H90.66a2.52,2.52,0,0,0-2.52,2.52v.37a2.52,2.52,0,0,0,2.52,2.51h4.89A2.51,2.51,0,0,0,98.06,87.67Z"/><rect class="glasses-2" x="269.33" y="84.78" width="9.92" height="5.4" rx="2.51"/><path d="M249.72,81.86s20.38,3.92,17.73,24.69-5.23,28.8-11.37,33-26.66,6.72-37.87-.61c-5.83-4.11-15.91-15.27-17.8-28.8s1.21-23.12,9.7-25.92S237.75,77.41,249.72,81.86Z"/><path d="M157.29,84.21c8.48,2.8,11.59,12.39,9.69,25.92s-12,24.69-17.8,28.8c-11.21,7.33-31.74,4.8-37.87.61s-8.71-12.22-11.36-33,17.72-24.69,17.72-24.69C129.64,77.41,148.8,81.42,157.29,84.21Z"/><rect class="glasses-2" x="88.14" y="84.78" width="9.92" height="5.4" rx="2.51"/><path class="glasses-3" d="M117.67,81.86S97.29,85.78,100,106.55s5.22,28.8,11.36,33,26.66,6.72,37.87-.61c5.83-4.11,15.91-15.27,17.8-28.8S165.77,87,157.29,84.21,129.64,77.41,117.67,81.86Z"/><rect class="glasses-3" x="88.14" y="84.78" width="9.92" height="5.4" rx="2.51"/><path class="glasses-4" d="M283.15,82.73c0-.82-.7-.77-1.28-1.17-3-1.68-31.46-7.85-45.46-7.85s-38.21,4.34-42.83,6.59c0,0-3.09-1-9.58-1a43.39,43.39,0,0,0-10.19,1C169.19,78.05,145,73.71,131,73.71s-42.47,6.17-45.45,7.85c-.37.25-.78.32-1,.54a.81.81,0,0,0-.25.72V93.61s-.12,1.55,2.07,2.25,5.84,3.36,6.93,10,4.26,24.39,7.91,31.82,12,11.5,18,12.06,27.14,1.82,35.78-5.19,19-26.49,21.54-38c1.71-6,2.07-9.11,6.09-9.39h2.24c4,.28,4.38,3.36,6.08,9.39,2.56,11.5,12.9,31,21.54,38s29.81,5.75,35.78,5.19,14.36-4.63,18-12.06,6.81-25.23,7.91-31.82,4.74-9.25,6.93-10,2.07-2.25,2.07-2.25V82.82A.28.28,0,0,0,283.15,82.73Z"/><path class="glasses-5" d="M84.58,82l-.11.08c-1.09,1-1.44,6.6-1.44,6.6V97.6s-.13,1.56,2.09,2.27,5.91,3.4,7,10.07,4.31,24.69,8,32.22,12.2,11.63,18.23,12.2,27.47,1.85,36.22-5.25,19.22-26.82,21.8-38.46c1.73-6.1,2.1-9.22,6.16-9.51h2.27c4.07.29,4.44,3.41,6.16,9.51,2.59,11.64,13.06,31.36,21.8,38.46S243,154.93,249,154.36s14.54-4.68,18.23-12.2,6.9-25.55,8-32.22,4.8-9.37,7-10.07,2.09-2.27,2.09-2.27V87.31a21.31,21.31,0,0,0-1.21-4.58L283,82.4"/><path class="glasses-3" d="M249.72,81.86s20.38,3.92,17.73,24.69-5.23,28.8-11.37,33-26.66,6.72-37.87-.61c-5.83-4.11-15.91-15.27-17.8-28.8s1.21-23.12,9.7-25.92S237.75,77.41,249.72,81.86Z"/><rect class="glasses-3" x="269.33" y="84.78" width="9.92" height="5.4" rx="2.51"/><path class="glasses-6" d="M147.06,83.5S163.18,84.56,164.94,98a41,41,0,0,1,0,13.45,31.35,31.35,0,0,0-4.86-20.82C156.15,84.65,147.06,83.5,147.06,83.5Z"/><path class="glasses-6" d="M247.17,83.5S263.29,84.56,265.05,98a41,41,0,0,1,0,13.45,31.35,31.35,0,0,0-4.86-20.82C256.26,84.65,247.17,83.5,247.17,83.5Z"/><path class="glasses-7" d="M102.51,111.51s2.18,19.75,7.22,24.38,18.39,7.5,25.2,6.13,14.31-2.45,19.35-9.39,9.4-17.3,9.4-17.3S123.08,137.53,102.51,111.51Z"/><path class="glasses-8" d="M202.23,112.46s7.22,16.76,12.26,21.39,14,8.41,21,8.17c8.18-.27,17.44,0,22.48-6.94s6.27-19.75,6.27-19.75S224,135.49,202.23,112.46Z"/></svg>