<svg id="viking_crown" data-name="viking crown" xmlns="http://www.w3.org/2000/svg" viewBox="0 0 360 360"><defs><style>.spike{fill:#fbcc34;}.band{fill:#e2c675;}.helmet{fill:#f4e09c;}.viking-4,.viking-5{fill:none;stroke:#000;stroke-linecap:round;stroke-linejoin:round;}.viking-4{stroke-width:0.96px;}.viking-5{stroke-width:0.83px;}.viking-6{fill:#fff;}</style></defs><path class="spike" d="M275.87,83l-13.8,5.59h-.13c.35-5.64.76-12.55,1-17.7h0Z"/><path class="spike" d="M263.08,55.23l-2.61,3-9.17,10.6s-5.22,1.94-8.36-1.77a10.12,10.12,0,0,1-1-11.85h21.15Z"/><path class="band" d="M232.15,43.36c1.6.68,3.15,1.36,4.67,2,4.9,2.22,9.29,4.41,12.8,6.23,2.9,1.5,5.19,2.75,6.64,3.56v0H241.93a10.12,10.12,0,0,0,1,11.85c3.14,3.71,8.36,1.77,8.36,1.77l9.17-10.6,0,.06A11.37,11.37,0,0,1,263,63.58a60,60,0,0,1-.08,7.31c-.22,5.15-.63,12.06-1,17.7-.24,3.7-.44,6.85-.55,8.61,0-4.62-3.2-10.7-5.17-12.69-2.15-2.18-40-30.51-75.47-29.15s-66.6,22.34-71.42,26.56-5.83,16.53-5.83,16.53c0-1-.31-4.93-.62-9.86-.35-5.64-.76-12.55-1-17.7a57.83,57.83,0,0,1-.08-7.31,11.31,11.31,0,0,1,2.46-5.27l.07-.06,9.16,10.6s5.23,1.94,8.35-1.77a10.09,10.09,0,0,0,1-11.85H108.55v0c1.37-.76,3.51-1.93,6.2-3.33,3.49-1.82,7.9-4,12.85-6.27,1.51-.69,3.08-1.38,4.67-2.07,3.53-1.51,7.24-3,11-4.33h.06l.2,14.13s5.57,4.22,11.15-.14,2.66-10.9,2.66-10.9l-9.78-4.54c7.28-2.36,14.58-4.05,21-4.31H178l-5.06,7.08s1.26,7,8.1,7,7.6-6.81,7.6-6.81l-5.44-7.22h13.15c6.37.26,13.67,2,21,4.31l-9.78,4.54s-2.91,6.54,2.66,10.9,11.14.14,11.14.14l.21-14.13h.05C225.18,40.48,228.75,41.9,232.15,43.36Z"/><path class="helmet" d="M261.39,97.2v0c-.05.56-.07,1-.09,1.21-.16,2.91-5.05,6.54-5.05,6.54l-1.94-1.34-3.55-1.36V93.57s-20-29.42-66.09-29.42-69,29.69-69,29.69V105h-7.09s-4.9-3.63-5.07-6.54c0,0,1-12.3,5.83-16.53s36-25.2,71.42-26.56,73.32,27,75.47,29.15C258.19,86.5,261.37,92.58,261.39,97.2Z"/><path class="spike" d="M239.15,31.11c6.7-1.71,21.47-7,20-20.43,0,0,16.33,31.06-9.37,40.6l-.16.35c-3.51-1.82-7.9-4-12.8-6.23-3.55-7.66-.89-13.6-.89-13.6S237.2,31.61,239.15,31.11Z"/><path class="band" d="M239.14,31.05v.06c-2,.5-3.22.69-3.22.69s-2.66,5.94.89,13.6c-1.52-.68-3.07-1.36-4.67-2-.94-3.91-1.29-12.12,1.29-13.4a3.34,3.34,0,0,1,1-.33C236.79,29.24,239.14,31.05,239.14,31.05Z"/><path class="helmet" d="M234.45,29.51l0,.12a3.34,3.34,0,0,0-1,.33c-2.58,1.28-2.23,9.49-1.29,13.4-3.4-1.46-7-2.88-10.6-4.17h-.05l0-3.44-4.27,2c-7.29-2.36-14.59-4.05-21-4.31H183.16l-2.67-3.54L178,33.43h-9.45c-6.38.26-13.68,2-21,4.31l-4.28-2,0,3.44h-.06c-3.75,1.34-7.46,2.82-11,4.33l0-.08c.95-3.88,1.33-12.19-1.27-13.48a3.5,3.5,0,0,0-.58-.23c11.12-12.08,30.31-20.06,52.13-20.06C204.2,9.67,223.29,17.55,234.45,29.51Z"/><path class="spike" d="M217.27,37.74l4.27-2,0,3.44-.21,14.13s-5.56,4.22-11.14-.14-2.66-10.9-2.66-10.9Z"/><path class="spike" d="M183.16,33.43l5.44,7.22s-.76,6.81-7.6,6.81-8.1-7-8.1-7L178,33.43l2.53-3.54Z"/><path class="spike" d="M147.55,37.74l9.78,4.54s2.91,6.54-2.66,10.9-11.15.14-11.15.14l-.2-14.13,0-3.44Z"/><path class="band" d="M131,30c2.6,1.29,2.22,9.6,1.27,13.48l0,.08c-1.59.69-3.16,1.38-4.67,2.07l0-.1c3.62-7.7.93-13.69.93-13.69s-1.26-.19-3.22-.69v-.06s2.66-2.05,5.12-1.32A3.5,3.5,0,0,1,131,30Z"/><path class="spike" d="M128.49,31.8s2.69,6-.93,13.69l0,.1c-4.95,2.25-9.36,4.45-12.85,6.27l-.1-.58c-25.7-9.54-9.37-40.6-9.37-40.6-1.47,13.41,13.29,18.72,20,20.43C127.23,31.61,128.49,31.8,128.49,31.8Z"/><path class="spike" d="M122.88,55.23a10.09,10.09,0,0,1-1,11.85c-3.12,3.71-8.35,1.77-8.35,1.77l-9.16-10.6-2.61-3h21.14Z"/><path class="spike" d="M102.88,88.59h-.13L89,83l12.91-12.12h0C102.12,76,102.53,83,102.88,88.59Z"/><path class="viking-4" d="M108.55,55.19c1.37-.76,3.51-1.93,6.2-3.33,3.49-1.82,7.9-4,12.85-6.27,1.51-.69,3.08-1.38,4.67-2.07,3.53-1.51,7.24-3,11-4.33"/><path class="viking-4" d="M261.39,97.2c.11-1.76.31-4.91.55-8.61.35-5.64.76-12.55,1-17.7a60,60,0,0,0,.08-7.31,11.37,11.37,0,0,0-2.48-5.27"/><path class="viking-4" d="M104.28,58.31a11.31,11.31,0,0,0-2.46,5.27,57.83,57.83,0,0,0,.08,7.31c.22,5.15.63,12.06,1,17.7.31,4.93.57,8.89.62,9.86.17,2.91,5.07,6.54,5.07,6.54h7.09V93.84s22.91-29.69,69-29.69,66.09,29.42,66.09,29.42v8.72l3.55,1.36,1.94,1.34s4.89-3.63,5.05-6.54c0-.24,0-.65.09-1.21"/><polyline class="viking-4" points="101.86 70.89 88.95 83.02 102.75 88.61"/><path class="viking-4" d="M104.35,58.25l9.16,10.6s5.23,1.94,8.35-1.77a10.09,10.09,0,0,0,1-11.85H101.74Z"/><path class="viking-4" d="M143.32,39.19l.2,14.13s5.57,4.22,11.15-.14,2.66-10.9,2.66-10.9l-9.78-4.54-4.28-2Z"/><path class="viking-4" d="M178,33.43h-9.45c-6.38.26-13.68,2-21,4.31h0"/><path class="viking-4" d="M217.29,37.74h0c-7.29-2.36-14.59-4.05-21-4.31H183"/><path class="viking-4" d="M256.26,55.19c-1.45-.81-3.74-2.06-6.64-3.56-3.51-1.82-7.9-4-12.8-6.23-1.52-.68-3.07-1.36-4.67-2-3.4-1.46-7-2.88-10.6-4.17"/><polyline class="viking-4" points="262.96 70.89 275.87 83.02 262.07 88.61"/><path class="viking-4" d="M260.47,58.25l-9.17,10.6s-5.22,1.94-8.36-1.77a10.12,10.12,0,0,1-1-11.85h21.15Z"/><path class="viking-4" d="M221.5,39.19l-.21,14.13s-5.56,4.22-11.14-.14-2.66-10.9-2.66-10.9l9.78-4.54,4.27-2Z"/><path class="viking-4" d="M183.16,33.43l5.44,7.22s-.76,6.81-7.6,6.81-8.1-7-8.1-7L178,33.43l2.53-3.54Z"/><path class="viking-5" d="M130.4,29.73c11.12-12.08,30.31-20.06,52.13-20.06,21.67,0,40.76,7.88,51.92,19.84"/><path class="viking-5" d="M114.65,51.28c-25.7-9.54-9.37-40.6-9.37-40.6-1.47,13.41,13.29,18.72,20,20.43,2,.5,3.22.69,3.22.69s2.69,6-.93,13.69"/><path class="viking-5" d="M125.28,31.05s2.66-2.05,5.12-1.32A3.5,3.5,0,0,1,131,30c2.6,1.29,2.22,9.6,1.27,13.48"/><path class="viking-5" d="M249.78,51.28c25.7-9.54,9.37-40.6,9.37-40.6,1.47,13.41-13.3,18.72-20,20.43-2,.5-3.22.69-3.22.69s-2.66,5.94.89,13.6a.36.36,0,0,0,0,.09"/><path class="viking-5" d="M239.14,31.05s-2.35-1.81-4.67-1.42a3.34,3.34,0,0,0-1,.33c-2.58,1.28-2.23,9.49-1.29,13.4l0,.08"/><path class="viking-4" d="M103.5,98.45s1-12.3,5.83-16.53,36-25.2,71.42-26.56,73.32,27,75.47,29.15c2,2,5.15,8.07,5.17,12.69v0a7.92,7.92,0,0,1-.09,1.21"/><path class="viking-6" d="M170.18,13.58a11,11,0,0,0-4.44.26c-1.47.25-2.93.56-4.38.95a65.07,65.07,0,0,0-8.92,3c-5.07,2.15-10.79,4.44-14.47,9-.31.38.2.91.53.54a21,21,0,0,1,6.93-4.73c2.58-1.2,5.22-2.31,7.88-3.32a67.8,67.8,0,0,1,8.14-2.65A44.51,44.51,0,0,1,166,15.8a20.39,20.39,0,0,0,4.22-.52A.91.91,0,0,0,170.18,13.58Z"/><path class="viking-6" d="M176.52,13.14a.48.48,0,0,0-.23-.29.42.42,0,0,0-.36,0l-1.13.45a.45.45,0,0,0-.24.21.48.48,0,0,0,0,.35.43.43,0,0,0,.52.3l1.16-.35A.52.52,0,0,0,176.52,13.14Z"/><path class="viking-6" d="M261.76,26.07a.33.33,0,1,0-.65,0,24.46,24.46,0,0,1-8.57,18.71,1.25,1.25,0,0,0-.41,1.23.26.26,0,0,0,0-.09.82.82,0,0,0-.2-.12.37.37,0,0,0-.18,0,.49.49,0,0,0-.17.06l-.09.06-.12,0h-.06a.56.56,0,0,0-.44.22l0,0a.5.5,0,0,0-.13.25.41.41,0,0,0,0,.22.38.38,0,0,0,.07.21.44.44,0,0,0,.19.19l.06,0h0l.14.06.16,0,.08,0a.25.25,0,0,0,.15-.05l.08,0h0a1.57,1.57,0,0,0,.25-.2.93.93,0,0,0,.13-.15,1.78,1.78,0,0,0,.17-.27l0-.11a.66.66,0,0,0,0-.14.91.91,0,0,0,1.47.47C259.66,42.06,262.66,33.87,261.76,26.07Z"/><path class="viking-6" d="M105.92,38.21c-.1-.57-.61-1-.86-1.49a9.39,9.39,0,0,1-.52-1.46c-.36-1.26-.71-2.54-1-3.83-.57-2.59-1.17-5.53-.36-8.12.12-.4-.44-.52-.57-.15a17.77,17.77,0,0,0-1,4.34,17.89,17.89,0,0,0,.31,4.62c.25,1.45.54,2.9.91,4.31.3,1.09,1,3,2.33,2.9A.88.88,0,0,0,105.92,38.21Z"/><path class="viking-6" d="M108.86,42.51a.72.72,0,0,0-.16-.25l-.14-.12,0-.06-.17-.13-.06,0a2.48,2.48,0,0,1-.54-.32,3,3,0,0,1-.44-.43l-.11-.09A.36.36,0,0,0,107,41a.54.54,0,0,0-.35.08.63.63,0,0,0-.22.67,3.79,3.79,0,0,0,.47,1,4.74,4.74,0,0,0,.4.49l.08.08.12.1a1.05,1.05,0,0,0,.3.15l.22.06.2,0a.57.57,0,0,0,.29-.08.75.75,0,0,0,.34-.34,1,1,0,0,0,.09-.41A.64.64,0,0,0,108.86,42.51Z"/><path class="viking-6" d="M153.27,42.4a8.58,8.58,0,0,0-1.93-1c-.6-.26-1.18-.56-1.76-.85a11.59,11.59,0,0,1-3.11-2.1c-.52-.5-1.23.32-.74.85a21.42,21.42,0,0,0,3,2.54c.51.38,1,.73,1.55,1.09a10.18,10.18,0,0,0,1.84,1.23,1,1,0,0,0,1.26-.32A1.12,1.12,0,0,0,153.27,42.4Z"/><path class="viking-6" d="M156,44.36a.85.85,0,0,0-.21-.37h0l-.17-.12a.63.63,0,0,0-.3-.1.5.5,0,0,0-.21,0,.61.61,0,0,0-.29.11.67.67,0,0,0-.18.11.3.3,0,0,0-.2.1.38.38,0,0,0-.08.23s0,.11,0,.16,0,.13,0,.14a.59.59,0,0,0,.08.31.42.42,0,0,0,.1.17l.06.08,0,0a2,2,0,0,0,.23.18.77.77,0,0,0,.81,0h0A1,1,0,0,0,156,45a.73.73,0,0,0,.08-.33A.66.66,0,0,0,156,44.36Z"/><path class="viking-6" d="M154.9,43.83l-.08,0,.15-.07Z"/><path class="viking-6" d="M154.8,43.89h0Z"/><path class="viking-6" d="M154.78,43.89h0Z"/><path class="viking-6" d="M179.85,33.07c0-.07-.06-.15-.12-.09s-.22.09-.31.18a3.24,3.24,0,0,0-.27.35l-.46.61a11.74,11.74,0,0,0-1,1.43c-.27.51-.53,1-.8,1.52l-.37.71a3.63,3.63,0,0,0-.42.92.75.75,0,0,0,1.26.73,3.57,3.57,0,0,0,.48-.88l.35-.72.75-1.55a11.89,11.89,0,0,0,.58-1.68c.07-.25.14-.5.22-.75a3.06,3.06,0,0,0,.13-.43C179.89,33.3,179.83,33.18,179.85,33.07Z"/><path class="viking-6" d="M218.49,38.87c-.69.37-1.45.63-2.18,1A24.31,24.31,0,0,0,214.1,41c-.69.39-1.37.8-2,1.22a9,9,0,0,0-2,1.58.86.86,0,0,0-.2.66l-.11,0-.12,0a.41.41,0,0,0-.19.13l-.06.07a.26.26,0,0,0-.09.16.29.29,0,0,0,0,.18.41.41,0,0,0,0,.19.31.31,0,0,0,.1.15l.09.07a.46.46,0,0,0,.23.06l.12,0a.5.5,0,0,0,.19-.13l.07-.07a.61.61,0,0,0,.07-.14.72.72,0,0,0,.76.16A9.79,9.79,0,0,0,213,44c.68-.47,1.35-1,2-1.44s1.3-.93,1.92-1.45a20.38,20.38,0,0,1,1.95-1.55A.41.41,0,0,0,218.49,38.87Z"/><path class="viking-6" d="M257.1,56.38c-2,.48-4.09.58-6.13,1-1,.18-2,.35-3,.58a8.79,8.79,0,0,0-3,.89.85.85,0,0,0-.23.27.42.42,0,0,0-.12,0c-1.12,0-1.06,1.87.06,1.87a.74.74,0,0,0,.73-.52,10.17,10.17,0,0,0,3-.54c1-.24,1.95-.54,2.91-.81,2-.58,4-1.44,6-1.93C257.78,57,257.56,56.27,257.1,56.38Z"/><path class="viking-6" d="M270.52,79.63h0l-.06,0-.16-.07-.33-.18a2.3,2.3,0,0,1-.33-.21l-.15-.1,0,0-.06-.05a4.6,4.6,0,0,1-.56-.52,2.13,2.13,0,0,0-.34-.33l-.3-.21a.35.35,0,0,0-.43,0,.42.42,0,0,0-.12.44c0,.12.08.24.13.36a1.15,1.15,0,0,0,.22.35l.14.15a5.7,5.7,0,0,0,2.19,1.41.49.49,0,0,0,.58-.39A.54.54,0,0,0,270.52,79.63Z"/><path class="viking-6" d="M120.89,56.78a30.58,30.58,0,0,0-7-.4,65.8,65.8,0,0,0-7,.27c-.49,0-.64.91-.09,1,2.29.33,4.59.52,6.9.63a31.78,31.78,0,0,0,7,0C121.48,58.15,121.73,57,120.89,56.78Z"/><path class="viking-6" d="M97.37,78.37a.51.51,0,0,0-.23-.29.45.45,0,0,0-.36,0l-.11.06a.55.55,0,0,0-.16.18L96,79.1a.41.41,0,0,0,0,.19.44.44,0,0,0,0,.2.47.47,0,0,0,.22.29.42.42,0,0,0,.36,0l.12,0a.6.6,0,0,0,.16-.19l.5-.82a.32.32,0,0,0,0-.19A.35.35,0,0,0,97.37,78.37Z"/></svg>