{
  "accessors": [
    {
      "bufferView": 2,
      "componentType": 5126,
      "count": 6326,
      "max": [
        0.4169510006904602,
        2.0708398818969727,
        0.3208799958229065
      ],
      "min": [
        -0.5598580241203308,
        -0.004404999781399965,
        -0.23114100098609924
      ],
      "type": "VEC3"
    },
    {
      "bufferView": 2,
      "byteOffset": 75912,
      "componentType": 5126,
      "count": 6326,
      "max": [
        0.9997116327285767,
        0.9998264908790588,
        0.9999617338180542
      ],
      "min": [
        -0.9997041821479797,
        -0.9999756217002869,
        -0.9999824166297913
      ],
      "type": "VEC3"
    },
    {
      "bufferView": 1,
      "componentType": 5126,
      "count": 6326,
      "max": [
        1.0,
        1.0
      ],
      "min": [
        0.0,
        0.0
      ],
      "type": "VEC2"
    },
    {
      "bufferView": 0,
      "componentType": 5125,
      "count": 8928,
      "type": "SCALAR"
    },
    {
      "bufferView": 2,
      "byteOffset": 151824,
      "componentType": 5126,
      "count": 1614,
      "max": [
        0.37870699167251587,
        1.6438100337982178,
        0.3122180104255676
      ],
      "min": [
        -0.5285059809684753,
        0.502269983291626,
        -0.17068199813365936
      ],
      "type": "VEC3"
    },
    {
      "bufferView": 2,
      "byteOffset": 171192,
      "componentType": 5126,
      "count": 1614,
      "max": [
        0.9996766448020935,
        0.9919076561927795,
        0.9984074234962463
      ],
      "min": [
        -0.9999830722808838,
        -0.9993395805358887,
        -0.9994983673095703
      ],
      "type": "VEC3"
    },
    {
      "bufferView": 1,
      "byteOffset": 50608,
      "componentType": 5126,
      "count": 1614,
      "max": [
        1.0,
        1.0
      ],
      "min": [
        0.0,
        0.0
      ],
      "type": "VEC2"
    },
    {
      "bufferView": 0,
      "byteOffset": 35712,
      "componentType": 5125,
      "count": 2286,
      "type": "SCALAR"
    },
    {
      "bufferView": 2,
      "byteOffset": 190560,
      "componentType": 5126,
      "count": 140,
      "max": [
        0.033333998173475266,
        1.8373750448226929,
        0.18686500191688538
      ],
      "min": [
        -0.09487099945545197,
        1.7542070150375366,
        0.1245800033211708
      ],
      "type": "VEC3"
    },
    {
      "bufferView": 2,
      "byteOffset": 192240,
      "componentType": 5126,
      "count": 140,
      "max": [
        0.9563291072845459,
        0.6501424908638,
        0.9812264442443848
      ],
      "min": [
        -0.8815761208534241,
        -0.8735118508338928,
        -0.2753247916698456
      ],
      "type": "VEC3"
    },
    {
      "bufferView": 1,
      "byteOffset": 63520,
      "componentType": 5126,
      "count": 140,
      "max": [
        0.995048999786377,
        0.25247499346733093
      ],
      "min": [
        0.5,
        0.00494999997317791
      ],
      "type": "VEC2"
    },
    {
      "bufferView": 0,
      "byteOffset": 44856,
      "componentType": 5125,
      "count": 168,
      "type": "SCALAR"
    },
    {
      "bufferView": 2,
      "byteOffset": 193920,
      "componentType": 5126,
      "count": 28,
      "max": [
        0.034790001809597015,
        1.890861988067627,
        0.1914989948272705
      ],
      "min": [
        -0.0966159999370575,
        1.8700209856033325,
        0.16833800077438354
      ],
      "type": "VEC3"
    },
    {
      "bufferView": 2,
      "byteOffset": 194256,
      "componentType": 5126,
      "count": 28,
      "max": [
        0.8442296981811523,
        -0.013716744258999825,
        0.920960009098053
      ],
      "min": [
        -0.8137251138687134,
        -0.42068952322006226,
        0.5043299198150635
      ],
      "type": "VEC3"
    },
    {
      "bufferView": 1,
      "byteOffset": 64640,
      "componentType": 5126,
      "count": 28,
      "max": [
        0.995048999786377,
        0.19059400260448456
      ],
      "min": [
        0.995048999786377,
        0.128712996840477
      ],
      "type": "VEC2"
    },
    {
      "bufferView": 0,
      "byteOffset": 45528,
      "componentType": 5125,
      "count": 36,
      "type": "SCALAR"
    },
    {
      "bufferView": 2,
      "byteOffset": 194592,
      "componentType": 5126,
      "count": 590,
      "max": [
        0.4560990035533905,
        1.7993890047073364,
        0.42476099729537964
      ],
      "min": [
        -0.5914009809494019,
        0.02703999914228916,
        -0.32936999201774597
      ],
      "type": "VEC3"
    },
    {
      "bufferView": 2,
      "byteOffset": 201672,
      "componentType": 5126,
      "count": 590,
      "max": [
        0.9933329224586487,
        0.9907001852989197,
        0.9998795390129089
      ],
      "min": [
        -0.9229317903518677,
        -0.7643908858299255,
        -0.9998475909233093
      ],
      "type": "VEC3"
    },
    {
      "bufferView": 1,
      "byteOffset": 64864,
      "componentType": 5126,
      "count": 590,
      "max": [
        0.995048999786377,
        0.995048999786377
      ],
      "min": [
        0.0,
        0.0
      ],
      "type": "VEC2"
    },
    {
      "bufferView": 0,
      "byteOffset": 45672,
      "componentType": 5125,
      "count": 810,
      "type": "SCALAR"
    },
    {
      "bufferView": 2,
      "byteOffset": 208752,
      "componentType": 5126,
      "count": 618,
      "max": [
        -0.4010449945926666,
        1.849452018737793,
        0.4605950117111206
      ],
      "min": [
        -0.5712040066719055,
        -0.02064800076186657,
        0.027204999700188637
      ],
      "type": "VEC3"
    },
    {
      "bufferView": 2,
      "byteOffset": 216168,
      "componentType": 5126,
      "count": 618,
      "max": [
        0.8982797265052795,
        0.815895676612854,
        0.998519241809845
      ],
      "min": [
        -0.908844530582428,
        -0.8952207565307617,
        -0.9963869452476501
      ],
      "type": "VEC3"
    },
    {
      "bufferView": 1,
      "byteOffset": 69584,
      "componentType": 5126,
      "count": 618,
      "max": [
        0.0,
        0.0
      ],
      "min": [
        0.0,
        0.0
      ],
      "type": "VEC2"
    },
    {
      "bufferView": 0,
      "byteOffset": 48912,
      "componentType": 5125,
      "count": 918,
      "type": "SCALAR"
    },
    {
      "bufferView": 2,
      "byteOffset": 223584,
      "componentType": 5126,
      "count": 76,
      "max": [
        -0.4655439853668213,
        2.2531321048736572,
        0.5012609958648682
      ],
      "min": [
        -0.5635910034179688,
        1.8313469886779785,
        0.37766700983047485
      ],
      "type": "VEC3"
    },
    {
      "bufferView": 2,
      "byteOffset": 224496,
      "componentType": 5126,
      "count": 76,
      "max": [
        0.9322218894958496,
        0.43437859416007996,
        0.9953713417053223
      ],
      "min": [
        -0.9972832798957825,
        -0.37630370259284973,
        -0.9955504536628723
      ],
      "type": "VEC3"
    },
    {
      "bufferView": 1,
      "byteOffset": 74528,
      "componentType": 5126,
      "count": 76,
      "max": [
        0.0,
        0.0
      ],
      "min": [
        0.0,
        0.0
      ],
      "type": "VEC2"
    },
    {
      "bufferView": 0,
      "byteOffset": 52584,
      "componentType": 5125,
      "count": 90,
      "type": "SCALAR"
    }
  ],
  "asset": {
    "extras": {
      "author": "DavidA3D (https://sketchfab.com/DavidA3D)",
      "license": "CC-BY-NC-4.0 (http://creativecommons.org/licenses/by-nc/4.0/)",
      "source": "https://sketchfab.com/3d-models/armored-batman-ben-affleck-2338f4672d9f4f11b7fcb775e89a69e5",
      "title": "Armored Batman (Ben Affleck)"
    },
    "generator": "Sketchfab-12.67.0",
    "version": "2.0"
  },
  "bufferViews": [
    {
      "buffer": 0,
      "byteLength": 52944,
      "name": "floatBufferViews",
      "target": 34963
    },
    {
      "buffer": 0,
      "byteLength": 75136,
      "byteOffset": 52944,
      "byteStride": 8,
      "name": "floatBufferViews",
      "target": 34962
    },
    {
      "buffer": 0,
      "byteLength": 225408,
      "byteOffset": 128080,
      "byteStride": 12,
      "name": "floatBufferViews",
      "target": 34962
    }
  ],
  "buffers": [
    {
      "byteLength": 353488,
      "uri": "scene.bin"
    }
  ],
  "materials": [
    {
      "doubleSided": true,
      "name": "Pewter",
      "pbrMetallicRoughness": {
        "baseColorFactor": [
          0.235294,
          0.239216,
          0.223529,
          1.0
        ],
        "roughnessFactor": 0.5732463260553661
      }
    },
    {
      "doubleSided": true,
      "name": "Suit",
      "pbrMetallicRoughness": {
        "baseColorFactor": [
          0.196078,
          0.215686,
          0.219608,
          1.0
        ],
        "roughnessFactor": 0.9589496169482394
      }
    },
    {
      "doubleSided": true,
      "name": "Skin",
      "pbrMetallicRoughness": {
        "baseColorFactor": [
          0.72549,
          0.623529,
          0.52549,
          1.0
        ],
        "metallicFactor": 0.0,
        "roughnessFactor": 0.876320513524116
      }
    },
    {
      "doubleSided": true,
      "emissiveFactor": [
        0.44895049180010527,
        1.0,
        1.0
      ],
      "name": "White",
      "pbrMetallicRoughness": {
        "baseColorFactor": [
          0.8,
          0.8,
          0.8,
          1.0
        ],
        "metallicFactor": 0.0,
        "roughnessFactor": 0.8449469889683662
      }
    },
    {
      "doubleSided": true,
      "name": "Black",
      "pbrMetallicRoughness": {
        "baseColorFactor": [
          0.10142719638655309,
          0.10142719638655309,
          0.10142719638655309,
          1.0
        ],
        "metallicFactor": 0.8286135989152972,
        "roughnessFactor": 0.9680772984562797
      }
    },
    {
      "doubleSided": true,
      "name": "Silver",
      "pbrMetallicRoughness": {
        "baseColorFactor": [
          0.607843,
          0.607843,
          0.607843,
          1.0
        ],
        "roughnessFactor": 0.4090816506454104
      }
    },
    {
      "doubleSided": true,
      "name": "Green",
      "pbrMetallicRoughness": {
        "baseColorFactor": [
          0.06274499999999997,
          0.34901999999999983,
          0.031372999999999984,
          1.0
        ],
        "roughnessFactor": 0.23883680207212302
      }
    }
  ],
  "meshes": [
    {
      "name": "Batman.obj_Pewter_0",
      "primitives": [
        {
          "attributes": {
            "NORMAL": 1,
            "POSITION": 0,
            "TEXCOORD_0": 2
          },
          "indices": 3,
          "material": 0,
          "mode": 4
        }
      ]
    },
    {
      "name": "Batman.obj_Suit_0",
      "primitives": [
        {
          "attributes": {
            "NORMAL": 5,
            "POSITION": 4,
            "TEXCOORD_0": 6
          },
          "indices": 7,
          "material": 1,
          "mode": 4
        }
      ]
    },
    {
      "name": "Batman.obj_Skin_0",
      "primitives": [
        {
          "attributes": {
            "NORMAL": 9,
            "POSITION": 8,
            "TEXCOORD_0": 10
          },
          "indices": 11,
          "material": 2,
          "mode": 4
        }
      ]
    },
    {
      "name": "Batman.obj_White_0",
      "primitives": [
        {
          "attributes": {
            "NORMAL": 13,
            "POSITION": 12,
            "TEXCOORD_0": 14
          },
          "indices": 15,
          "material": 3,
          "mode": 4
        }
      ]
    },
    {
      "name": "Batman.obj_Black_0",
      "primitives": [
        {
          "attributes": {
            "NORMAL": 17,
            "POSITION": 16,
            "TEXCOORD_0": 18
          },
          "indices": 19,
          "material": 4,
          "mode": 4
        }
      ]
    },
    {
      "name": "Batman.obj_Silver_0",
      "primitives": [
        {
          "attributes": {
            "NORMAL": 21,
            "POSITION": 20,
            "TEXCOORD_0": 22
          },
          "indices": 23,
          "material": 5,
          "mode": 4
        }
      ]
    },
    {
      "name": "Batman.obj_Green_0",
      "primitives": [
        {
          "attributes": {
            "NORMAL": 25,
            "POSITION": 24,
            "TEXCOORD_0": 26
          },
          "indices": 27,
          "material": 6,
          "mode": 4
        }
      ]
    }
  ],
  "nodes": [
    {
      "children": [
        1
      ],
      "matrix": [
        1.0,
        0.0,
        0.0,
        0.0,
        0.0,
        2.220446049250313e-16,
        -1.0,
        0.0,
        0.0,
        1.0,
        2.220446049250313e-16,
        0.0,
        0.0,
        0.0,
        0.0,
        1.0
      ],
      "name": "Sketchfab_model"
    },
    {
      "children": [
        2
      ],
      "matrix": [
        1.0,
        0.0,
        0.0,
        0.0,
        0.0,
        0.0,
        1.0,
        0.0,
        0.0,
        -1.0,
        0.0,
        0.0,
        0.0,
        0.0,
        0.0,
        1.0
      ],
      "name": "c7aac0676b4b417d99f07f169c52077b.fbx"
    },
    {
      "children": [
        3
      ],
      "name": "RootNode"
    },
    {
      "children": [
        4,
        5,
        6,
        7,
        8,
        9,
        10
      ],
      "matrix": [
        100.0,
        0.0,
        0.0,
        0.0,
        0.0,
        99.99999999999866,
        1.6292067073209114e-05,
        0.0,
        0.0,
        -1.6292067073209114e-05,
        99.99999999999866,
        0.0,
        0.0,
        0.0,
        0.0,
        1.0
      ],
      "name": "Batman.obj"
    },
    {
      "mesh": 0,
      "name": "Batman.obj_Pewter_0"
    },
    {
      "mesh": 1,
      "name": "Batman.obj_Suit_0"
    },
    {
      "mesh": 2,
      "name": "Batman.obj_Skin_0"
    },
    {
      "mesh": 3,
      "name": "Batman.obj_White_0"
    },
    {
      "mesh": 4,
      "name": "Batman.obj_Black_0"
    },
    {
      "mesh": 5,
      "name": "Batman.obj_Silver_0"
    },
    {
      "mesh": 6,
      "name": "Batman.obj_Green_0"
    }
  ],
  "scene": 0,
  "scenes": [
    {
      "name": "Sketchfab_Scene",
      "nodes": [
        0
      ]
    }
  ]
}
